<?xml version="1.0" standalone="no"?>
<!DOCTYPE svg PUBLIC "-//W3C//DTD SVG 1.1//EN" "http://www.w3.org/Graphics/SVG/1.1/DTD/svg11.dtd" >
<svg xmlns="http://www.w3.org/2000/svg">
<metadata></metadata>
<defs>
<font id="connectionsregular" horiz-adv-x="1124" >
<font-face units-per-em="2048" ascent="1536" descent="-512" />
<missing-glyph horiz-adv-x="557" />
<glyph unicode="&#xfb01;" horiz-adv-x="1114" d="M55 877v90q17 5 142 37v126q0 197 97.5 279t291.5 82q154 -3 309 -37l-25 -129q-177 27 -266 27q-134 0 -190 -48.5t-56 -179.5v-125h592v-999h-166v877h-426q0 -146 -1 -439t-1 -438h-161v877h-140z" />
<glyph unicode="&#xfb02;" horiz-adv-x="1138" d="M55 877v90q17 5 142 37v106q0 104 26 175t79.5 112t126 58.5t175.5 17.5q141 -7 260 -25l111 18q0 -244 -1 -733t-1 -733h-162v1315q-144 20 -207 20q-133 0 -189.5 -49t-56.5 -180v-107h295v-122h-295q0 -146 -1 -439t-1 -438h-161v877h-140z" />
<glyph unicode="&#xfb03;" horiz-adv-x="1712" d="M55 877v90q17 5 142 37v133q0 166 110.5 248.5t298.5 82.5q134 0 273 -41q96 86 307 86q163 0 307 -36l-25 -129q-151 28 -254 28q-142 0 -201 -46.5t-59 -180.5v-148h594v-1001h-166v877h-428v-877h-163v877h-433q0 -146 -1 -439t-1 -438h-161v877h-140zM358 1001h435 v187q0 61 20 119q-96 24 -186 24q-152 0 -210.5 -57.5t-58.5 -192.5v-80z" />
<glyph unicode="&#xfb04;" horiz-adv-x="1738" d="M55 877v90q17 5 142 37v88q-7 181 96.5 277.5t304.5 96.5q144 0 281 -39q103 86 278 86q169 0 326 -22l92 18v-1509h-166v1356q-144 20 -207 20q-133 0 -189.5 -48.5t-56.5 -178.5q0 -26 -1 -76t-1 -74h297v-122h-297v-877h-163v877h-433q0 -146 -1 -439t-1 -438h-161 v877h-140zM358 999h435q0 16 -0.5 62t0 70t2 60t6 62t12.5 45v9q-96 24 -186 24q-152 0 -210.5 -57.5t-58.5 -192.5v-82z" />
<glyph horiz-adv-x="2048" />
<glyph horiz-adv-x="2048" />
<glyph unicode="&#xd;" horiz-adv-x="2048" />
<glyph unicode=" "  horiz-adv-x="557" />
<glyph unicode="&#x09;" horiz-adv-x="557" />
<glyph unicode="&#xa0;" horiz-adv-x="557" />
<glyph unicode="!" horiz-adv-x="460" d="M121 86q0 43 31.5 73.5t78.5 30.5q46 0 77.5 -30.5t31.5 -73.5q0 -44 -32.5 -76.5t-76.5 -32.5q-47 0 -78.5 32t-31.5 77zM150 1425h163l-4 -608l-18 -469h-113l-20 469z" />
<glyph unicode="&#x22;" horiz-adv-x="557" d="M94 1403h152l-31 -416h-92zM317 1403h150l-27 -416h-94z" />
<glyph unicode="#" horiz-adv-x="1091" d="M94 399l19 97h155l76 344h-164l19 94h166l79 352h105l-78 -352h301l78 352h106l-77 -352h141l-19 -94h-145l-76 -344h154l-19 -97h-155l-86 -399h-107l86 399h-299l-88 -399h-106l88 399h-154zM375 496h301l74 344h-299z" />
<glyph unicode="$" d="M121 98l47 121q181 -88 369 -88q149 0 228 58.5t79 189.5q0 57 -19.5 98t-60.5 69t-84 45.5t-111 35.5q-88 24 -133 38t-112.5 45t-100 65t-58.5 90t-26 128q0 159 98 258t263 117v188h116v-184q170 -7 306 -78l-48 -118q-153 63 -307 63q-117 0 -190.5 -62t-73.5 -178 q0 -30 9.5 -56t23 -45t39.5 -36.5t46.5 -28t57.5 -23.5t58.5 -19t62.5 -17h1l1 -1h1h1h1l2 -1q159 -45 228 -84q167 -93 175 -289v-20q0 -173 -107.5 -268t-286.5 -111v-188h-116v186q-225 7 -379 100z" />
<glyph unicode="%" horiz-adv-x="1679" d="M41 946q0 61 8 116t30.5 113t59 99.5t99 68.5t143.5 27q326 0 326 -422q0 -62 -9.5 -118.5t-33.5 -111t-60.5 -94t-94.5 -63.5t-132 -24q-81 0 -142.5 23.5t-97.5 61t-58.5 92.5t-30 110t-7.5 122zM180 944q0 -55 4.5 -96.5t17.5 -82t34.5 -66.5t58 -42t86.5 -16 q186 0 186 305q0 36 -1.5 64.5t-7 68.5t-18.5 69.5t-32.5 57t-52 42t-74.5 14.5q-201 0 -201 -318zM483 -45l602 1481h111l-598 -1481h-115zM973 403q0 61 8 116t30.5 113t59 99.5t99 68.5t143.5 27q325 0 325 -421q0 -62 -9.5 -118.5t-33.5 -111t-60.5 -94.5t-94 -64 t-131.5 -24q-81 0 -142.5 23.5t-97.5 61t-58.5 92.5t-30 110t-7.5 122zM1112 401q0 -55 4.5 -96.5t17.5 -82t34.5 -66.5t58 -42t86.5 -16q186 0 186 305q0 36 -1.5 64.5t-7 68.5t-18.5 69.5t-32.5 57t-52 42t-74.5 14.5q-201 0 -201 -318z" />
<glyph unicode="&#x26;" horiz-adv-x="1486" d="M70 375q0 258 340 444q-111 153 -111 279q0 58 18.5 110.5t54 94t93.5 66t131 24.5q76 0 135 -23t94 -62t52.5 -86.5t17.5 -99.5q0 -74 -38 -137.5t-94.5 -109t-150.5 -101.5q68 -102 222 -295q122 -142 153 -174q97 92 154 214t73 315h138q-13 -212 -81 -358t-190 -261 q148 -142 308 -211l-64 -115q-71 30 -173.5 99t-180.5 141q-99 -73 -217 -112.5t-234 -39.5q-198 0 -324 103t-126 295zM221 383q0 -137 85 -210t216 -73q175 0 355 119q-76 78 -185 217q-147 187 -209 275q-125 -68 -193.5 -146.5t-68.5 -181.5zM449 1108q0 -86 96 -223 q102 52 156.5 106t54.5 131q0 68 -44 110t-120 42q-38 0 -67 -16.5t-44.5 -42t-23.5 -53t-8 -54.5z" />
<glyph unicode="'" horiz-adv-x="395" d="M123 1403h153l-30 -416h-94z" />
<glyph unicode="(" horiz-adv-x="583" d="M123 584q0 129 23 254t55.5 216t77 177t78 135.5t69.5 93.5l72 -45q-31 -46 -62 -109t-70.5 -168t-64.5 -250t-25 -302q0 -522 224 -885l-74 -51q-35 45 -67.5 94t-78 139.5t-78 187t-56 233t-23.5 280.5z" />
<glyph unicode=")" horiz-adv-x="587" d="M66 -299q223 361 223 885q0 127 -17.5 249.5t-42 210.5t-57.5 168t-57 123.5t-47 77.5l71 45q36 -44 69.5 -93.5t78 -135.5t77 -177t55.5 -216t23 -254q0 -144 -23.5 -280.5t-56 -233t-78 -187t-79 -140t-68.5 -93.5z" />
<glyph unicode="*" horiz-adv-x="796" d="M100 1135q9 96 54 163l206 -116q-7 38 -23.5 115.5t-23.5 115.5q36 10 90 10q50 0 84 -10l-47 -231q39 20 113 59.5t94 50.5q31 -35 41 -71t14 -91q-41 -4 -120.5 -14t-120.5 -14l172 -162q-52 -66 -133 -100l-103 217l-100 -215q-78 29 -137 98l172 164z" />
<glyph unicode="+" horiz-adv-x="1142" d="M182 553v119h336v332h123v-332h334v-119h-334v-344h-123v344h-336z" />
<glyph unicode="," horiz-adv-x="430" d="M82 -201q83 80 92 191q-35 9 -55.5 36t-20.5 64q0 43 33 76t80 33q53 0 86 -37.5t33 -93.5q0 -88 -59.5 -183.5t-147.5 -138.5z" />
<glyph unicode="-" horiz-adv-x="749" d="M111 471v139h528v-139h-528z" />
<glyph unicode="." horiz-adv-x="425" d="M96 90q0 44 32.5 76.5t76.5 32.5q45 0 77.5 -32.5t32.5 -76.5q0 -45 -32.5 -77.5t-75.5 -32.5q-46 0 -78.5 32t-32.5 78z" />
<glyph unicode="/" horiz-adv-x="681" d="M31 -57l524 1493h111l-525 -1493h-110z" />
<glyph unicode="0" d="M57 688q0 74 6 142.5t21.5 143.5t40.5 138t65 121.5t92.5 99t126 64.5t162.5 24q90 0 163.5 -25t124 -66.5t89 -101t60.5 -122t36 -138t18.5 -139.5t4.5 -135q0 -108 -15 -205.5t-51 -191t-91.5 -161t-143 -109t-197.5 -41.5q-89 0 -162.5 21t-125.5 56.5t-92 88.5 t-64.5 111.5t-40 131.5t-21.5 143t-6 150zM227 684q0 -101 8 -179t30.5 -152.5t60 -123.5t99.5 -78.5t146 -29.5q64 0 116 23t87 64.5t60 94.5t39 118.5t20 130t6 136.5q0 57 -2 104t-9.5 111t-20.5 114t-38 102t-58.5 86.5t-84.5 56.5t-115 22t-116 -21t-87.5 -55 t-61.5 -84t-41 -101t-24 -114t-11.5 -114.5t-2.5 -110.5z" />
<glyph unicode="1" d="M203 1210v113l315 78h156v-1401h-166v1239z" />
<glyph unicode="2" d="M70 0v115l196 188q103 99 179.5 180.5t152 178.5t116 188.5t40.5 171.5q0 128 -74 192t-201 64q-177 0 -350 -111q-2 3 -59 109q204 147 438 147q190 0 305 -98t115 -287q0 -84 -33.5 -175t-80 -164.5t-122 -162.5t-132 -146t-139.5 -138t-118 -117q2 -2 2 -6h676v-129 h-911z" />
<glyph unicode="3" d="M66 68l47 127q197 -76 346 -76q166 0 261 74.5t97 199.5q0 302 -452 305v119q192 13 289.5 94t97.5 185q0 83 -61.5 136.5t-182.5 53.5q-159 0 -356 -96l-50 119q101 58 210.5 87t203.5 29q102 0 182 -26t127.5 -70t72 -98.5t24.5 -116.5q0 -63 -26.5 -125.5t-91.5 -121 t-159 -85.5v-6q155 -22 248.5 -122.5t93.5 -247.5q0 -179 -137.5 -301.5t-366.5 -122.5q-254 0 -417 86z" />
<glyph unicode="4" d="M47 383v117l643 901h174v-893h201v-125h-201l2 -383h-164v383h-655zM207 508h500v688h-13z" />
<glyph unicode="5" d="M92 66l41 118q201 -63 340 -63q174 0 271.5 79.5t97.5 239.5q0 96 -46 164t-120 99.5t-168 31.5q-118 0 -234 -55l-98 55q2 48 20.5 334.5t20.5 331.5h731v-133h-594l-24 -447q4 1 26 9.5t37 12.5t41 10.5t57.5 9.5t67.5 3q70 0 134.5 -15.5t123.5 -49t102.5 -82.5 t69 -121t25.5 -160q0 -112 -40 -201t-109.5 -143.5t-158 -83t-190.5 -28.5q-252 0 -424 84z" />
<glyph unicode="6" d="M100 639q0 173 33.5 314t99.5 246.5t172.5 163.5t245.5 58q160 0 299 -61q-4 -14 -17 -60t-18 -63q-124 45 -258 45q-87 0 -156 -38.5t-109.5 -93.5t-69 -128.5t-39.5 -130t-15 -111.5l11 -8q169 100 354 100q86 0 158 -24.5t130 -75t90.5 -135.5t32.5 -197 q0 -211 -127 -332.5t-335 -121.5q-110 0 -194.5 34t-138.5 91.5t-88 142.5t-47.5 178.5t-13.5 206.5zM270 584q0 -51 4 -97t15 -102t34 -101t56 -83.5t86 -60t121 -21.5q138 0 216.5 86.5t78.5 226.5q0 147 -65 228t-218 81q-32 0 -63 -3.5t-57.5 -9.5t-50.5 -13t-44 -16 t-36.5 -17.5t-30.5 -17t-22.5 -14.5t-15.5 -12l-8 -5v-49z" />
<glyph unicode="7" d="M131 1270v131h832v-119l-562 -1282h-163l563 1270h-670z" />
<glyph unicode="8" d="M84 348q0 123 63 240t197 198q-100 59 -146 125t-46 162q0 147 120 247.5t308 100.5q61 0 119 -11t113.5 -37t97 -64.5t66.5 -96.5t25 -129q0 -201 -206 -352q239 -124 239 -358q0 -165 -129 -276t-348 -111q-227 0 -350 101t-123 261zM254 367q0 -106 77.5 -179 t231.5 -73q146 0 226.5 77.5t80.5 186.5q0 27 -4 51t-15 45.5t-21 39t-32 36t-37 31.5t-47 30t-51 27.5t-60 28t-63.5 27t-70.5 28.5q-113 -71 -164 -164.5t-51 -191.5zM317 1071q0 -22 5.5 -42.5t12.5 -37t23 -33.5t27.5 -28.5t36.5 -27t39 -24t46 -23t46.5 -21t51 -22 t50.5 -21.5q189 132 189 272q0 41 -15 79.5t-45 73t-84.5 55.5t-124.5 21q-68 0 -121 -23t-81 -58.5t-42 -71.5t-14 -68z" />
<glyph unicode="9" d="M80 965q0 213 125.5 334.5t333.5 121.5q108 0 191.5 -34t136.5 -91.5t86.5 -142.5t47 -178.5t13.5 -206.5q0 -173 -33 -314.5t-99 -246.5t-171 -163t-242 -58q-99 0 -184 17t-131 42l36 123q122 -49 273 -49q85 0 153 39t108.5 95.5t68 130.5t38.5 132.5t15 112.5l-10 6 q-162 -105 -349 -105q-85 0 -157 25t-129 76t-89 136.5t-32 197.5zM242 975q0 -147 64 -229t214 -82q56 0 108 10.5t89.5 26t64.5 30.5t45 27.5t19 13.5v49q0 42 -2.5 80.5t-11 86.5t-22 88t-37.5 79t-55.5 66t-78.5 44t-104 17q-138 0 -215.5 -84.5t-77.5 -222.5z" />
<glyph unicode=":" horiz-adv-x="419" d="M104 94q0 44 32.5 76.5t76.5 32.5q46 0 78.5 -32.5t32.5 -76.5q0 -46 -30.5 -78t-78.5 -32q-47 0 -79 32.5t-32 77.5zM104 737q0 45 32 77t77 32q46 0 78.5 -31.5t32.5 -77.5q0 -45 -33 -77.5t-76 -32.5q-44 0 -77.5 33t-33.5 77z" />
<glyph unicode=";" horiz-adv-x="419" d="M82 -197q83 77 92 187q-35 9 -55.5 36t-20.5 64q0 43 33 76t80 33q53 0 86 -37.5t33 -93.5q0 -87 -59.5 -182t-147.5 -138zM104 737q0 45 32 77t77 32q46 0 78.5 -31.5t32.5 -77.5q0 -45 -33 -77.5t-76 -32.5q-44 0 -77.5 33t-33.5 77z" />
<glyph unicode="&#x3c;" horiz-adv-x="1142" d="M172 557v102l815 410v-139l-665 -320l665 -327v-138z" />
<glyph unicode="=" horiz-adv-x="1142" d="M158 410v116h825v-116h-825zM158 707v118h825v-118h-825z" />
<glyph unicode="&#x3e;" horiz-adv-x="1142" d="M172 145v138l666 327l-666 320v139l815 -410v-102z" />
<glyph unicode="?" horiz-adv-x="903" d="M86 1362q189 65 371 65q192 0 291.5 -75.5t99.5 -214.5q0 -62 -24.5 -120t-63.5 -104t-86 -89.5t-94 -83.5t-86 -79t-63.5 -83t-24.5 -89q0 -20 2.5 -41.5t8 -54.5t7.5 -51l-135 -18q-25 111 -25 186q0 56 15.5 102.5t53 95t77.5 87t112 100.5q74 64 111 119.5t37 118.5 q0 81 -61 119t-163 38q-156 0 -321 -55q-14 50 -39 127zM283 84q0 43 31 73.5t75 30.5q46 0 77.5 -30.5t31.5 -73.5q0 -44 -32 -74t-75 -30q-44 0 -76 30.5t-32 73.5z" />
<glyph unicode="@" horiz-adv-x="1896" d="M164 662q0 162 65 305t176 243.5t262.5 158.5t319.5 58q229 0 398.5 -88t258.5 -247t89 -369q-3 -205 -113 -320.5t-260 -115.5q-71 0 -137 30.5t-95 88.5q-51 -51 -126 -82t-156 -31q-54 0 -97 16t-68 40t-41 56.5t-22 61.5t-6 59q0 101 67 162.5t189 73.5l234 20v45 q0 96 -34 132t-124 36q-106 0 -246 -45l-16 54q-2 5 -7.5 24t-10.5 27q152 65 311 65q128 0 196 -62.5t68 -205.5v-326q0 -60 35 -93.5t104 -33.5q92 0 163 82.5t71 237.5q0 278 -169 438t-456 160q-142 0 -271 -50t-224 -136t-151 -207.5t-56 -257.5q0 -138 49.5 -260 t135 -208t205 -136t255.5 -50q140 0 266 45l35 -100q-130 -57 -297 -57q-226 0 -402 98.5t-272 272t-96 391.5zM764 539q0 -131 135 -131q95 0 203 88v186l-191 -16q-64 -6 -105.5 -39.5t-41.5 -87.5z" />
<glyph unicode="A" horiz-adv-x="1185" d="M20 0q60 184 223 673t240 730h222l458 -1403h-182q-22 67 -60.5 192t-54.5 175h-553q-17 -55 -55 -178.5t-59 -188.5h-179zM356 500h469q-111 376 -190 622l-41 138h-6l-41 -140q-82 -274 -191 -620z" />
<glyph unicode="B" horiz-adv-x="1247" d="M164 0v1403h504q199 0 305 -98.5t106 -260.5q0 -211 -192 -309q65 -20 113 -62.5t72 -94.5t35 -100.5t11 -94.5q0 -169 -116 -276t-279 -107h-559zM336 133h330q143 0 211.5 74.5t68.5 191.5q0 112 -73 188.5t-207 76.5h-330v-531zM336 795h293q132 0 204 63t72 172 q0 110 -68 175t-208 65h-293v-475z" />
<glyph unicode="C" horiz-adv-x="1200" d="M119 692q0 97 17 192t61 195t111 175t177.5 123t249.5 48q110 0 208.5 -27.5t162.5 -72.5l-68 -125q-128 88 -305 88q-210 0 -321 -159t-111 -439q0 -98 10 -175.5t38 -153.5t74.5 -126t124 -81t181.5 -31q180 0 344 86l51 -125q-69 -46 -189.5 -73t-223.5 -27 q-129 0 -229 33t-168 92.5t-112 148.5t-63.5 195.5t-19.5 238.5z" />
<glyph unicode="D" horiz-adv-x="1316" d="M160 0v1403h415q134 0 240.5 -37t177.5 -100.5t117.5 -153t67 -190.5t20.5 -217q0 -118 -22 -221t-71.5 -192.5t-123 -153.5t-182 -101t-242.5 -37h-397zM338 133h201q36 0 68 2.5t83 15.5t92.5 34t87 63.5t76.5 99t51.5 145t20.5 197.5q0 112 -19 203t-48 150.5 t-72 103.5t-83.5 67t-90 37t-84 17.5t-72.5 3.5h-211v-1139z" />
<glyph unicode="E" horiz-adv-x="1155" d="M164 0v1403h854v-131h-680v-465h573v-127h-573v-547h713v-133h-887z" />
<glyph unicode="F" horiz-adv-x="1093" d="M164 0v1403h848v-133h-674v-475h557v-131h-557v-664h-174z" />
<glyph unicode="G" horiz-adv-x="1282" d="M119 688q0 98 17 193t62 196t114 176t183.5 123.5t260.5 48.5q111 0 212.5 -27t168.5 -73l-64 -127q-139 90 -313 90q-223 0 -341 -160t-118 -442q0 -97 11.5 -175.5t41 -152.5t77.5 -123.5t125 -79.5t179 -30q51 0 126 14t126 43v453h-246v127h406v-668 q-88 -56 -202.5 -83t-223.5 -27q-164 0 -282.5 50.5t-187.5 146t-100.5 220.5t-31.5 287z" />
<glyph unicode="H" horiz-adv-x="1333" d="M160 0v1403h178q0 -67 -1 -298.5t-1 -297.5h659v596h179v-1403h-179v678h-659q0 -75 1 -339t1 -339h-178z" />
<glyph unicode="I" horiz-adv-x="540" d="M184 0v1403h172v-1403h-172z" />
<glyph unicode="J" horiz-adv-x="632" d="M-96 -244q103 59 166 107.5t105.5 107.5t59.5 126t17 161l2 1145h174l-2 -1135q0 -256 -116 -404t-357 -233z" />
<glyph unicode="K" horiz-adv-x="1187" d="M164 0v1403h172v-637l612 637h197l-543 -559l563 -844h-194l-482 727l-153 -158v-569h-172z" />
<glyph unicode="L" horiz-adv-x="1099" d="M164 0v1403h174v-1274h741v-129h-915z" />
<glyph unicode="M" horiz-adv-x="1685" d="M158 0v1403h192q207 -503 484 -1186h12q294 716 485 1186h193v-1403h-170v1049h-6q-206 -504 -433 -1049h-155q-152 361 -426 1026h-6q0 -171 -1 -513.5t-1 -512.5h-168z" />
<glyph unicode="N" horiz-adv-x="1396" d="M164 0v1403h174q170 -261 512 -795l205 -323h10v1118h168v-1403h-170l-541 848l-184 295q-1 0 -3.5 -1t-4.5 -1v-1141h-166z" />
<glyph unicode="O" horiz-adv-x="1429" d="M123 692q0 121 19.5 226t65 199.5t113.5 162t171 106.5t233 39q131 0 233 -39.5t167 -106t106.5 -161.5t58.5 -197.5t17 -222.5q0 -122 -23.5 -230t-71 -197t-116 -152.5t-163.5 -99t-208 -35.5q-602 0 -602 708zM303 690q0 -286 101 -429.5t321 -143.5q100 0 177.5 45 t125 124t72 182t24.5 224q0 602 -399 602q-422 0 -422 -604z" />
<glyph unicode="P" horiz-adv-x="1136" d="M164 0v1403h459q198 0 317 -106t119 -302q0 -55 -12 -109.5t-42.5 -111.5t-76 -100.5t-120 -71t-167.5 -27.5h-303l2 -575h-176zM338 707h278q53 0 97.5 14t83.5 44.5t61.5 87.5t22.5 136q0 139 -75.5 210t-197.5 71h-270v-563z" />
<glyph unicode="Q" horiz-adv-x="1429" d="M119 692q0 121 20 226t65.5 199.5t114 162t172.5 106.5t234 39q131 0 233.5 -39.5t167.5 -106t107 -162t59 -198.5t17 -223q0 -280 -121 -469.5t-346 -228.5q205 -100 516 -135l-25 -148q-120 10 -247.5 39.5t-271 92.5t-243.5 149q-452 82 -452 696zM301 688 q0 -285 100 -429t318 -144q103 0 181.5 44.5t127 123.5t72.5 182.5t24 226.5q0 602 -399 602q-424 0 -424 -606z" />
<glyph unicode="R" horiz-adv-x="1193" d="M160 0v1403h475q212 0 322 -111t110 -284q0 -136 -76 -247t-209 -145l310 -616h-193l-291 596h-274v-596h-174zM334 725h278q127 0 201 66.5t74 209.5q0 131 -77 201t-202 70h-274v-547z" />
<glyph unicode="S" horiz-adv-x="1173" d="M102 92l60 127q199 -96 395 -96q169 0 253.5 59.5t84.5 202.5q0 49 -16 87t-39.5 63t-66.5 46t-81 33.5t-98 28.5q-50 13 -80.5 21.5t-76 22.5t-73 26t-64 30.5t-58.5 37.5t-46 45.5t-37 55.5t-21.5 66t-8.5 80q0 185 129 291t336 106q235 0 385 -88l-55 -123 q-162 72 -338 72q-127 0 -203 -65t-76 -189q0 -32 10 -59.5t24.5 -47.5t41 -38t49 -29.5t60 -24t62 -19t67.5 -17.5q164 -41 232 -72q171 -78 207 -238q11 -47 11 -102q0 -136 -67 -227.5t-180 -132.5t-269 -41q-268 0 -453 108z" />
<glyph unicode="T" horiz-adv-x="1153" d="M41 1266v137h1071v-137h-448l-2 -1266h-170v1266h-451z" />
<glyph unicode="U" horiz-adv-x="1361" d="M147 504v899h172v-901q0 -190 94 -287.5t269 -97.5q176 0 270.5 97t94.5 288l-3 901h173v-899q0 -242 -135.5 -381t-401.5 -139q-533 0 -533 520z" />
<glyph unicode="V" horiz-adv-x="1134" d="M20 1403h185l280 -938l80 -285h10l82 287l277 936h180l-444 -1403h-205z" />
<glyph unicode="W" horiz-adv-x="1714" d="M20 1403h181q22 -95 59.5 -263t69.5 -308.5t61 -262.5q58 -270 78 -358h10l74 336q32 146 95.5 424.5t96.5 431.5h185l225 -846q5 -16 92 -344h13q38 171 79 375q26 120 57 257t68 300.5t58 257.5h172q-79 -338 -340 -1403h-205q-44 170 -127 481t-96 361 q-8 28 -35.5 138t-44.5 169l-15 2q-55 -249 -67 -311q-2 -9 -23.5 -103.5t-68 -301t-97.5 -435.5h-210z" />
<glyph unicode="X" horiz-adv-x="1140" d="M16 0l449 729q-47 76 -131.5 212.5t-155 249.5t-133.5 212h197l333 -563l338 563h195q-317 -496 -434 -682l448 -721h-192q-73 119 -212.5 350.5t-154.5 255.5l-356 -606h-191z" />
<glyph unicode="Y" horiz-adv-x="1097" d="M20 1403h183l192 -369l144 -284h8l155 297l195 356h178l-442 -789v-614h-182v606z" />
<glyph unicode="Z" horiz-adv-x="1089" d="M45 0v131l750 1133h-699v139h914v-131l-752 -1131h789v-141h-1002z" />
<glyph unicode="[" horiz-adv-x="532" d="M111 -328v1755h350v-110h-199v-1532h199v-113h-350z" />
<glyph unicode="\" horiz-adv-x="681" d="M31 1436h108l527 -1493h-113z" />
<glyph unicode="]" horiz-adv-x="532" d="M68 -215h198v1532h-198v110h348v-1755h-348v113z" />
<glyph unicode="^" horiz-adv-x="907" d="M43 780q60 102 178.5 307t179.5 308h99l352 -615h-127l-276 486q-47 -85 -143.5 -251t-135.5 -235h-127z" />
<glyph unicode="_" horiz-adv-x="1024" d="M0 -174h1024v-96h-1024v96z" />
<glyph unicode="`" horiz-adv-x="997" d="M270 1380l123 117l252 -332l-78 -69z" />
<glyph unicode="a" horiz-adv-x="999" d="M76 264q0 137 93.5 216t246.5 87l301 17v71q0 128 -45 182t-170 54q-143 0 -316 -57q-18 68 -32 110q183 78 385 78q168 0 254 -78t86 -256v-688h-148l-10 109q-2 2 -4 2q-54 -43 -108 -71t-102 -38.5t-75 -13t-61 -2.5q-82 0 -142.5 26t-92 69t-46 88.5t-14.5 94.5z M254 281q0 -90 45 -134.5t141 -44.5q131 0 277 127v248l-260 -16q-100 -6 -151.5 -52.5t-51.5 -127.5z" />
<glyph unicode="b" horiz-adv-x="1067" d="M119 74v1382h168v-295l-6 -219l10 -8q156 88 301 88q85 0 150.5 -26t108 -71.5t69.5 -113t38 -144t11 -171.5q0 -87 -13 -160.5t-44.5 -140t-80 -112t-123.5 -72.5t-171 -27q-221 0 -418 90zM287 162q107 -47 239 -47q133 0 202 87t69 290q0 115 -17 194t-50.5 121 t-74 59t-96.5 17q-127 0 -272 -84v-637z" />
<glyph unicode="c" horiz-adv-x="937" d="M94 487q0 70 11 137t42 141.5t79.5 129.5t132 91t190.5 36q179 0 305 -80l-59 -119q-118 64 -238 64q-144 0 -216.5 -104.5t-72.5 -288.5q0 -377 277 -377q73 0 137.5 18t148.5 64l52 -111q-66 -49 -157 -76.5t-189 -27.5q-443 0 -443 503z" />
<glyph unicode="d" horiz-adv-x="1067" d="M94 481q0 94 13.5 173.5t44 148.5t76.5 117t115 75t155 27q162 0 284 -74v508h168v-1456h-151l-8 98q-1 0 -2.5 1t-2.5 1q-67 -54 -153 -84t-166 -30q-83 0 -148 26t-106.5 70.5t-69 108.5t-38.5 135t-11 155zM266 481q0 -104 18 -177t52.5 -114.5t78.5 -60t103 -18.5 t139 34t125 76v598q-46 28 -119 50t-137 22q-55 0 -99.5 -20t-82 -65t-58 -127.5t-20.5 -197.5z" />
<glyph unicode="e" horiz-adv-x="1034" d="M98 498q0 42 4.5 85t17 96.5t32.5 100t54 92t78.5 78t109.5 52.5t143 20q64 0 118.5 -13t93.5 -32.5t70 -51t50.5 -61.5t33.5 -70t21 -70t11 -69.5t4.5 -60t0.5 -49.5v-80h-670v-10q0 -69 12 -125q14 -60 45.5 -111t89 -79.5t138.5 -28.5q84 0 157 17t162 54l41 -106 q-174 -92 -372 -92q-104 0 -183 27t-128 73t-79.5 113t-42.5 139.5t-12 161.5zM272 573h510q0 156 -55 241t-186 85q-246 0 -269 -326z" />
<glyph unicode="f" horiz-adv-x="747" d="M78 877v90l141 37v163q0 150 82 229t240 79q109 0 209 -25l-23 -121q-86 14 -152 14q-99 0 -146.5 -40t-47.5 -134v-170h293v-122h-293l-2 -877h-162v877h-139z" />
<glyph unicode="g" horiz-adv-x="1091" d="M70 -168q0 74 40.5 133t98.5 90q-64 14 -95.5 58t-31.5 102q0 78 54.5 135t127.5 70v10q-56 31 -90.5 96t-34.5 156q0 86 33.5 153t89.5 106.5t122 60t138 20.5q117 0 187 -23q52 3 327 23v-121h-182l-4 -8q38 -35 57 -90.5t19 -112.5q0 -146 -111 -240t-289 -94h-131 q-73 0 -120.5 -37t-47.5 -83q0 -80 121 -80h254q406 0 406 -267q0 -145 -139 -238t-367 -93q-119 0 -206 22.5t-134.5 62.5t-69.5 87t-22 102zM233 -135q0 -81 68.5 -132.5t218.5 -51.5q137 0 226.5 52.5t89.5 147.5q0 156 -256 156h-220q-54 -21 -90.5 -68.5t-36.5 -103.5z M309 690q0 -97 60.5 -154t158.5 -57q101 0 163.5 56.5t62.5 156.5q0 38 -11.5 72t-36 64.5t-70 48.5t-106.5 18q-102 0 -161.5 -55.5t-59.5 -149.5z" />
<glyph unicode="h" horiz-adv-x="1052" d="M119 0v1456h166v-323l-6 -213l16 -9q94 49 189.5 80t160.5 31q57 0 101.5 -10.5t74.5 -26.5t51 -43t32.5 -52t18 -61t8 -63.5t1.5 -65.5v-700h-166v659q0 60 -5 95.5t-22 68.5t-53 47.5t-94 14.5q-66 0 -149.5 -29t-155.5 -70v-786h-168z" />
<glyph unicode="i" horiz-adv-x="520" d="M150 1262q0 45 32.5 77.5t75.5 32.5q46 0 79.5 -32.5t33.5 -77.5q0 -43 -34 -76t-79 -33q-43 0 -75.5 33t-32.5 76zM174 0v999h166v-999h-166z" />
<glyph unicode="j" horiz-adv-x="542" d="M-49 -332q148 84 195 155t47 204v972h165q0 -934 -2 -991q-8 -186 -83 -282.5t-273 -169.5q-5 11 -49 112zM170 1262q0 46 32 78t77 32t77.5 -32.5t32.5 -77.5q0 -44 -33 -76.5t-77 -32.5t-76.5 32.5t-32.5 76.5z" />
<glyph unicode="k" horiz-adv-x="927" d="M119 0v1454h168v-635l-8 -227l14 -6q53 55 192 195.5t213 217.5h189q-55 -57 -120.5 -123.5t-144.5 -146.5t-122 -123q10 -14 33.5 -41.5t33.5 -42.5l351 -522h-185q-67 100 -194 293t-140 213l-112 -113v-393h-168z" />
<glyph unicode="l" horiz-adv-x="466" d="M150 0v1456h165v-1456h-165z" />
<glyph unicode="m" horiz-adv-x="1656" d="M119 0v999h162l2 -88l8 -6q83 55 172 86t166 31q168 0 241 -121q73 52 174.5 86.5t186.5 34.5q59 0 106 -11t78.5 -29t54.5 -45.5t35.5 -55t19.5 -63.5t9 -64.5t2 -65.5v-688h-168v662q0 117 -36.5 170t-145.5 53q-66 0 -149 -24.5t-140 -61.5q12 -54 12 -135v-664h-166 v696q0 95 -42.5 142t-118.5 47q-139 0 -297 -99v-786h-166z" />
<glyph unicode="n" horiz-adv-x="1052" d="M119 0v999h164l2 -86l6 -4q82 53 178 83t170 30q57 0 102 -10.5t75 -27t52 -42.5t34 -52t19 -61t9 -63.5t2 -65.5v-700h-166v659q0 47 -3 77.5t-13 61.5t-28.5 48t-51 28t-78.5 11q-66 0 -149.5 -29t-155.5 -70v-786h-168z" />
<glyph unicode="o" horiz-adv-x="1081" d="M98 496q0 82 15 157t49.5 143t85.5 117.5t128.5 79t172.5 29.5q97 0 173 -29.5t124.5 -78.5t80 -117.5t44 -141t12.5 -155.5q0 -81 -13.5 -152.5t-46.5 -139.5t-83.5 -116.5t-130 -78t-181.5 -29.5q-96 0 -170.5 27.5t-122.5 74.5t-79.5 113.5t-44.5 139t-13 157.5z M272 496q0 -65 6 -116.5t24 -103.5t47.5 -86t80 -55.5t119.5 -21.5q260 0 260 383q0 397 -260 397q-64 0 -113.5 -23.5t-79.5 -61.5t-49.5 -91.5t-27 -107t-7.5 -113.5z" />
<glyph unicode="p" horiz-adv-x="1067" d="M119 -426v1425h162l2 -77l10 -9q63 50 142 79.5t157 29.5q84 0 149 -26.5t107 -71.5t69.5 -109.5t38.5 -136t11 -156.5q0 -114 -22 -208.5t-68 -170.5t-125.5 -118.5t-186.5 -42.5q-181 0 -280 69v-477h-166zM287 178q34 -26 109.5 -49t140.5 -23q116 0 188 100t72 320 q0 101 -17.5 172t-51.5 111.5t-78 58t-103 17.5q-60 0 -142 -33.5t-118 -69.5v-604z" />
<glyph unicode="q" horiz-adv-x="1069" d="M100 463q0 93 13 172.5t45 152t81 123.5t126.5 81t177.5 30q207 0 405 -88q0 -226 -1 -681t-1 -679h-164v266q0 143 2 215l-16 8q-150 -81 -285 -81q-105 0 -180.5 34.5t-119 100t-63.5 150.5t-20 196zM270 496q0 -89 11.5 -155t31 -108.5t50 -68.5t65.5 -36.5t80 -10.5 q124 0 272 82v649q-103 45 -229 45q-129 0 -203 -98t-78 -299z" />
<glyph unicode="r" horiz-adv-x="696" d="M137 0v999h158l6 -180q2 0 4 -2q64 101 167.5 153t209.5 52v-162q-235 -5 -375 -178v-682h-170z" />
<glyph unicode="s" horiz-adv-x="913" d="M80 61l53 115q149 -67 309 -67q228 0 228 159q0 31 -12.5 56.5t-29.5 42.5t-49.5 33.5t-57 26t-66.5 24.5q-148 52 -191 74q-117 60 -140 156q-7 28 -7 60q0 138 101 209.5t261 71.5q73 0 155.5 -17.5t143.5 -54.5l-51 -116q-132 53 -250 53q-88 0 -145.5 -35.5 t-57.5 -112.5q0 -29 18.5 -53t52 -41.5t62.5 -29t67 -23.5q9 -3 13 -4q49 -16 73 -23.5t68 -25.5t66.5 -32.5t53 -39.5t45.5 -51.5t26.5 -64t11.5 -81.5q0 -145 -107 -215.5t-288 -70.5q-94 0 -192.5 20t-163.5 57z" />
<glyph unicode="t" horiz-adv-x="729" d="M41 879v88l154 47l51 221l106 18v-254h301v-120h-303v-598q0 -80 30 -122t109 -42q70 0 189 35l27 -113q-116 -55 -250 -55q-269 0 -269 245v650h-145z" />
<glyph unicode="u" horiz-adv-x="1032" d="M119 301v698h166v-657q0 -47 3 -77.5t13 -60.5t28 -47t50 -27.5t78 -10.5q62 0 142.5 33t148.5 94v753h163v-999h-157l-6 117l-5 4q-87 -78 -176 -108.5t-159 -30.5q-66 0 -116 12.5t-80.5 38t-50 53t-28.5 68t-11.5 72t-2.5 75.5z" />
<glyph unicode="v" horiz-adv-x="948" d="M18 999h170q25 -80 83.5 -251.5t86.5 -262.5q10 -30 50 -160t63 -196h10q4 12 45.5 149t73.5 234l162 487h168l-361 -999h-200z" />
<glyph unicode="w" horiz-adv-x="1474" d="M18 999h168l142 -516l78 -317h10l84 330l143 503h162l166 -526l86 -307h12l74 305l143 528h168l-297 -999h-182l-146 463l-100 354h-10l-92 -354l-133 -463h-183z" />
<glyph unicode="x" horiz-adv-x="884" d="M8 0l336 522q-73 113 -305 477h186q37 -61 108.5 -184.5t108.5 -185.5q38 61 111 184.5t111 185.5h184q-48 -73 -152.5 -231t-158.5 -242q68 -103 190.5 -296t146.5 -230h-186q-34 57 -118 199.5t-130 218.5q-39 -64 -122.5 -204.5t-129.5 -213.5h-180z" />
<glyph unicode="y" horiz-adv-x="937" d="M-2 -408q3 23 12.5 66.5t12.5 58.5q116 -22 165 -22q63 0 102 29t68 116l41 123q-67 187 -190 536.5t-176 499.5h172q237 -734 268 -833h10l258 833h166q-262 -794 -395 -1189q-45 -136 -115 -194t-182 -58q-101 0 -217 34z" />
<glyph unicode="z" horiz-adv-x="841" d="M25 0v104l559 758l-6 15h-492v122h711v-108l-557 -756l6 -12h573v-123h-794z" />
<glyph unicode="{" horiz-adv-x="542" d="M59 557v92q69 13 102.5 72.5t33.5 144.5v232v10q0 36 0.5 56.5t3.5 60t9.5 64t20 56t32 49.5t48 31t66.5 13h121v-111h-47q-103 0 -103 -135v-332q0 -217 -123 -254q36 -20 59.5 -44t36 -47t19 -64t7.5 -71t1 -91v-391q0 -64 19.5 -99t74.5 -35h56v-110h-107 q-194 0 -194 256v432q0 189 -136 215z" />
<glyph unicode="|" horiz-adv-x="497" d="M182 -285v1719h119v-1719h-119z" />
<glyph unicode="}" horiz-adv-x="542" d="M49 -236h55q55 0 75 35t20 99v391q0 61 1 91t7.5 71t19 64t36 47t59.5 44q-123 37 -123 254v332q0 135 -103 135h-47v111h121q37 0 66.5 -13t48 -31t32 -49.5t20 -56t9.5 -64t3.5 -60t0.5 -56.5v-3v-3v-4v-232q0 -85 33 -144.5t102 -72.5v-92q-35 -7 -60.5 -24 t-39.5 -37.5t-22 -49.5t-10.5 -52t-2.5 -52v-432q0 -256 -194 -256h-107v110z" />
<glyph unicode="~" horiz-adv-x="1142" d="M154 563q36 81 97 127.5t136 46.5q66 0 220 -48t206 -48l139 98l68 -55q-33 -81 -94 -129.5t-138 -48.5q-69 0 -149 24t-150 48t-116 24l-150 -96z" />
<glyph unicode="&#xa1;" horiz-adv-x="460" d="M121 907q0 45 31.5 77t78.5 32q43 0 75 -32.5t32 -76.5q0 -43 -31 -73.5t-78 -30.5q-45 0 -76.5 30.5t-31.5 73.5zM147 -430q3 88 13 528q2 61 5 172t6 202.5t7 172.5h111q12 -442 16 -661q8 -204 8 -414h-166z" />
<glyph unicode="&#xa2;" d="M186 641q0 68 9.5 131.5t36.5 134.5t70 124.5t117.5 92.5t170.5 47v177h92v-174q126 -3 250 -50q-2 -10 -17.5 -60t-17.5 -60q-112 36 -215 36v-766q109 2 254 62l39 -115q-129 -66 -293 -78v-176h-92v174q-404 24 -404 500zM358 651q0 -160 53 -257t179 -118v754 q-115 -23 -173.5 -122.5t-58.5 -256.5z" />
<glyph unicode="&#xa3;" d="M104 0l2 125q147 68 160 362l10 172h-141v109h148q10 145 10 229q5 94 29.5 168.5t71.5 133t124 90.5t180 32q93 0 185 -18.5t157 -48.5l-47 -123q-135 51 -280 51q-74 0 -124.5 -20.5t-78.5 -62.5t-40.5 -92.5t-16.5 -123.5q0 -2 -5.5 -107.5t-5.5 -107.5h381v-109h-389 q0 -74 -8 -174q-12 -272 -115 -360h715v-125h-922z" />
<glyph unicode="&#xa4;" horiz-adv-x="1126" d="M119 268l131 125q-80 102 -80 232q0 140 80 235l-129 131l76 78l131 -131q104 80 235 80q124 0 234 -80l129 131l80 -80l-134 -127q78 -105 78 -233q0 -125 -78 -236l134 -123l-80 -82l-131 129q-97 -77 -232 -77q-134 0 -233 77l-133 -131zM287 627q0 -114 80 -193.5 t194 -79.5q111 0 192 80t81 193q0 112 -80 192t-193 80q-114 0 -194 -79.5t-80 -192.5z" />
<glyph unicode="&#xa5;" d="M66 1403h176l311 -643h8l322 643h172l-385 -731h288v-97h-313v-116h313v-94h-313v-365h-178v365h-303v94h303v116h-303v97h270z" />
<glyph unicode="&#xa6;" horiz-adv-x="497" d="M182 -285v783h119v-783h-119zM182 700v734h119v-734h-119z" />
<glyph unicode="&#xa7;" horiz-adv-x="966" d="M119 647q0 164 151 271q-68 46 -98.5 95.5t-30.5 116.5q0 150 106 232t275 82q176 0 303 -51l-39 -113q-136 43 -266 43q-99 0 -163 -45.5t-64 -134.5q0 -28 15.5 -54t36 -45t59 -41.5t66 -35.5t76.5 -35t72 -33q51 -24 86.5 -46t72.5 -55t56 -75.5t19 -93.5 q0 -77 -31.5 -143t-109.5 -130q153 -95 153 -250q0 -158 -116 -240.5t-295 -82.5q-149 0 -314 53l33 111q149 -49 283 -49q124 0 189 51.5t65 142.5q0 67 -46 112t-141 89q-25 11 -68 29.5t-70.5 30.5t-66.5 32t-64 37t-53 42t-44 50.5t-26.5 60t-10.5 72.5zM268 682 q0 -47 19 -82.5t57 -61t75 -42.5t95.5 -40.5t95.5 -43.5q45 45 72 96.5t27 87.5q0 37 -15.5 68.5t-38.5 52.5t-59.5 42.5t-68.5 35.5t-77.5 34t-74.5 35q-107 -87 -107 -182z" />
<glyph unicode="&#xa8;" horiz-adv-x="962" d="M203 1235q0 37 28 63.5t64 26.5q43 0 69.5 -25t26.5 -65q0 -39 -26.5 -64.5t-67.5 -25.5q-40 0 -67 26t-27 64zM588 1235q0 38 26 64t62 26q43 0 71.5 -25.5t28.5 -64.5q0 -38 -28.5 -64t-71.5 -26q-38 0 -63 26t-25 64z" />
<glyph unicode="&#xa9;" horiz-adv-x="1710" d="M102 682q0 151 59.5 288.5t160.5 237t240 158.5t292 59q203 0 376.5 -99.5t275.5 -271t102 -372.5q0 -202 -102 -374t-275.5 -271.5t-376.5 -99.5q-153 0 -292 59t-240 158.5t-160.5 237.5t-59.5 290zM190 682q0 -178 90 -329t243 -238.5t331 -87.5q181 0 334 87.5 t241.5 238.5t88.5 329t-88.5 329t-241.5 238.5t-334 87.5q-178 0 -331 -87.5t-243 -238.5t-90 -329zM434 666q0 70 11.5 137.5t43 140t80 126t129 88t183.5 34.5q150 0 252 -41l-27 -98q-94 34 -217 34q-159 0 -241.5 -111t-82.5 -310q0 -72 9 -130t31.5 -110.5t59 -87.5 t93.5 -55.5t133 -20.5q133 0 239 33l23 -92q-51 -20 -132.5 -33.5t-152.5 -13.5q-434 0 -434 510z" />
<glyph unicode="&#xaa;" horiz-adv-x="712" d="M41 731q0 47 17.5 82.5t50 57t71 35.5t88 20.5t94 9t95.5 4.5h3.5h3h3.5v35q0 77 -28.5 106t-104.5 29q-98 0 -213 -41q-5 17 -18.5 53.5t-14.5 40.5q132 58 274 58q118 0 178 -53t60 -175v-342h92l8 -88q-56 -24 -133 -24q-83 0 -98 69q-96 -73 -213 -73 q-60 0 -104.5 18.5t-67.5 49t-33 62.5t-10 66zM184 741q0 -104 113 -104q33 0 82.5 21t87.5 49v147q-41 -1 -70.5 -2.5t-65 -5t-59.5 -11.5t-45.5 -20t-32 -30.5t-10.5 -43.5z" />
<glyph unicode="&#xab;" horiz-adv-x="886" d="M123 346v80l299 326l70 -54l-207 -313l207 -311l-68 -51zM424 346v80l301 326l70 -54l-207 -313l207 -311l-68 -51z" />
<glyph unicode="&#xac;" horiz-adv-x="1142" d="M182 553v119h793v-463h-125v344h-668z" />
<glyph unicode="&#xad;" horiz-adv-x="749" d="M111 471v139h528v-139h-528z" />
<glyph unicode="&#xae;" horiz-adv-x="1189" d="M88 965q0 134 66 247t180.5 178.5t251.5 65.5q135 0 249 -65.5t180 -178.5t66 -247q0 -100 -39 -190.5t-105.5 -156t-158 -104.5t-192.5 -39q-136 0 -250.5 65.5t-181 178.5t-66.5 246zM162 965q0 -173 123.5 -296.5t300.5 -123.5q179 0 300.5 123t121.5 297 t-122.5 297.5t-299.5 123.5q-176 0 -300 -123.5t-124 -297.5zM410 672v598h204q89 0 139 -42.5t50 -125.5q0 -44 -28.5 -90.5t-82.5 -69.5l125 -270h-98l-115 258h-104v-258h-90zM500 995h106q107 0 107 105q0 53 -29.5 78.5t-75.5 25.5h-108v-209z" />
<glyph unicode="&#xaf;" horiz-adv-x="1030" d="M172 1212v131h674v-131h-674z" />
<glyph unicode="&#xb0;" horiz-adv-x="710" d="M90 1102q0 111 82 193.5t195 82.5q114 0 193 -82t79 -194q0 -116 -78.5 -194.5t-193.5 -78.5q-125 0 -201 77t-76 196zM190 1100q0 -72 51 -123t124 -51q71 0 123.5 51.5t52.5 122.5q0 74 -52.5 127t-123.5 53q-73 0 -124 -52.5t-51 -127.5z" />
<glyph unicode="&#xb1;" horiz-adv-x="1142" d="M182 0v109h791v-109h-791zM182 549v121h334v321h125v-321h332v-121h-332v-332h-125v332h-334z" />
<glyph unicode="&#xb2;" horiz-adv-x="745" d="M37 1462q136 94 293 94q132 0 210 -58.5t78 -170.5q0 -52 -26.5 -110.5t-60.5 -104.5t-93.5 -104.5t-96 -90t-97.5 -81.5q69 0 205.5 -1t203.5 -1v-107h-608v92q100 76 193 162t166 182.5t73 155.5q0 123 -164 123q-99 0 -223 -68z" />
<glyph unicode="&#xb3;" horiz-adv-x="737" d="M41 772l39 98q137 -47 229 -47q101 0 157 37.5t56 102.5q0 161 -284 161v90q122 8 183.5 50.5t61.5 97.5q0 42 -36 68t-109 26q-106 0 -234 -59l-36 90q140 76 276 76q137 0 204.5 -54t67.5 -135q0 -54 -38 -108.5t-113 -81.5q90 -19 141 -77t51 -138q0 -106 -91 -179 t-242 -73q-167 0 -283 55z" />
<glyph unicode="&#xb4;" horiz-adv-x="1007" d="M397 1159l252 332l119 -111l-297 -284z" />
<glyph unicode="&#xb6;" horiz-adv-x="1073" d="M88 1036q0 159 107 271t266 112h422v-1816h-121v1695h-139l2 -1695h-125v1063h-39q-160 0 -266.5 106t-106.5 264z" />
<glyph unicode="&#xb7;" horiz-adv-x="419" d="M104 586q0 45 32.5 76.5t78.5 31.5q45 0 77 -31.5t32 -76.5t-33 -78t-76 -33q-44 0 -77.5 33.5t-33.5 77.5z" />
<glyph unicode="&#xb8;" horiz-adv-x="915" d="M319 -426q242 23 242 121q0 26 -17.5 44t-50 26t-64.5 11t-75 3l-26 39q29 37 95 123.5t103 132.5q10 -7 32 -19.5t32 -19.5q-65 -81 -127 -164q103 -5 163 -45.5t60 -116.5q0 -92 -93.5 -150.5t-273.5 -58.5v74z" />
<glyph unicode="&#xb9;" horiz-adv-x="745" d="M88 1475l242 69h119v-817h-138v686l-205 -29z" />
<glyph unicode="&#xba;" horiz-adv-x="722" d="M51 877q0 68 17.5 128t54 110t99 79t145.5 29q85 0 146.5 -29t95 -79.5t48.5 -109t15 -128.5q0 -68 -16 -125.5t-51 -107.5t-99.5 -78.5t-153.5 -28.5q-83 0 -143 27t-93.5 76t-49 107.5t-15.5 129.5zM190 874q0 -51 6.5 -88t24.5 -72t54.5 -53t91.5 -18q168 0 168 234 q0 44 -7 82.5t-24 76.5t-52 60t-85 22t-86.5 -21.5t-55.5 -58.5t-27 -77.5t-8 -86.5z" />
<glyph unicode="&#xbb;" horiz-adv-x="886" d="M104 74l207 311l-207 313l70 54l299 -326v-80l-301 -323zM408 74l204 311l-204 313l69 54l299 -326v-80l-301 -323z" />
<glyph unicode="&#xbd;" horiz-adv-x="1679" d="M147 1290l242 70h119v-817h-137v686l-205 -29zM426 -45l602 1481h111l-598 -1481h-115zM946 735q136 94 293 94q132 0 210.5 -58.5t78.5 -170.5q0 -52 -27 -111t-60.5 -104.5t-94 -104.5t-96 -89.5t-97.5 -81.5q69 0 206 -1.5t204 -1.5v-106h-609v92q100 76 193 162 t166 182.5t73 155.5q0 123 -163 123q-100 0 -224 -68z" />
<glyph unicode="&#xbf;" horiz-adv-x="903" d="M84 -170q0 164 180 311q144 116 203 189.5t59 156.5q0 30 -16 148l135 18q25 -125 25 -186q0 -55 -16.5 -103.5t-55.5 -99.5t-79 -91t-111 -105q-76 -60 -110 -107.5t-34 -110.5q0 -83 59.5 -122t161.5 -39q156 0 324 53l37 -123q-187 -68 -371 -68q-187 0 -286.5 73.5 t-104.5 205.5zM434 907q0 44 32 76.5t75 32.5q45 0 77.5 -32t32.5 -77q0 -43 -32 -73.5t-76 -30.5t-76.5 30.5t-32.5 73.5z" />
<glyph unicode="&#xc0;" horiz-adv-x="1185" d="M20 0q60 184 223 673t240 730h222l458 -1403h-182q-22 67 -60.5 192t-54.5 175h-553q-17 -55 -55 -178.5t-59 -188.5h-179zM299 1778l123 112l252 -329l-80 -68zM356 500h469q-111 376 -190 622l-41 138h-6l-41 -140q-82 -274 -191 -620z" />
<glyph unicode="&#xc1;" horiz-adv-x="1185" d="M20 0q60 184 223 673t240 730h222l458 -1403h-182q-22 67 -60.5 192t-54.5 175h-553q-17 -55 -55 -178.5t-59 -188.5h-179zM356 500h469q-111 376 -190 622l-41 138h-6l-41 -140q-82 -274 -191 -620zM530 1556l252 330l123 -108l-297 -285z" />
<glyph unicode="&#xc2;" horiz-adv-x="1185" d="M20 0q60 184 223 673t240 730h222l458 -1403h-182q-22 67 -60.5 192t-54.5 175h-553q-17 -55 -55 -178.5t-59 -188.5h-179zM225 1550l307 283h113l311 -279l-51 -59l-317 182l-316 -184zM356 500h469q-111 376 -190 622l-41 138h-6l-41 -140q-82 -274 -191 -620z" />
<glyph unicode="&#xc3;" horiz-adv-x="1185" d="M20 0q60 184 223 673t240 730h222l458 -1403h-182q-22 67 -60.5 192t-54.5 175h-553q-17 -55 -55 -178.5t-59 -188.5h-179zM268 1606q25 70 72 111.5t106 41.5q51 0 156 -40t139 -40l117 82l57 -45q-24 -71 -70.5 -113t-105.5 -42q-53 0 -111 19.5t-107 39.5t-79 20 l-116 -79zM356 500h469q-111 376 -190 622l-41 138h-6l-41 -140q-82 -274 -191 -620z" />
<glyph unicode="&#xc4;" horiz-adv-x="1185" d="M20 0q60 184 223 673t240 730h222l458 -1403h-182q-22 67 -60.5 192t-54.5 175h-553q-17 -55 -55 -178.5t-59 -188.5h-179zM303 1579q0 36 27 63t63 27q43 0 71 -25t28 -65q0 -39 -27.5 -64.5t-67.5 -25.5q-41 0 -67.5 25t-26.5 65zM356 500h469q-111 376 -190 622 l-41 138h-6l-41 -140q-82 -274 -191 -620zM688 1579q0 37 25.5 63.5t60.5 26.5q43 0 71.5 -25.5t28.5 -64.5t-28.5 -64.5t-71.5 -25.5q-37 0 -61.5 25.5t-24.5 64.5z" />
<glyph unicode="&#xc5;" horiz-adv-x="1185" d="M20 0q60 184 223 673t240 730h222l458 -1403h-182q-22 67 -60.5 192t-54.5 175h-553q-17 -55 -55 -178.5t-59 -188.5h-179zM356 500h469q-111 376 -190 622l-41 138h-6l-41 -140q-82 -274 -191 -620zM371 1661q0 87 65 151t158 64q91 0 154 -63t63 -152q0 -91 -63 -153 t-154 -62q-93 0 -158 62.5t-65 152.5zM463 1655q0 -54 36 -90.5t95 -36.5q55 0 90 37t35 90q0 56 -35 94.5t-90 38.5q-58 0 -94.5 -37.5t-36.5 -95.5z" />
<glyph unicode="&#xc6;" horiz-adv-x="1937" d="M20 0l875 1401h911v-127h-637v-473h533v-125h-533v-547h670v-129h-844v420h-530l-260 -420h-185zM543 553h452v711h-10z" />
<glyph unicode="&#xc7;" horiz-adv-x="1200" d="M119 692q0 97 17 192t61 195t111 175t177.5 123t249.5 48q110 0 208.5 -27.5t162.5 -72.5l-68 -125q-128 88 -305 88q-210 0 -321 -159t-111 -439q0 -98 10 -175.5t38 -153.5t74.5 -126t124 -81t181.5 -31q180 0 344 86l51 -125q-61 -40 -162.5 -65.5t-201.5 -32.5 q-55 -70 -86 -115q103 -5 163 -45.5t60 -116.5q0 -92 -93.5 -150.5t-273.5 -58.5v74q242 23 242 121q0 26 -17.5 44t-50 26t-64.5 11t-75 3l-26 39l127 168q-147 6 -254 58t-170.5 146.5t-93 218t-29.5 283.5z" />
<glyph unicode="&#xc8;" horiz-adv-x="1155" d="M164 0v1401h854v-131h-680v-465h573v-127h-573v-545h713v-133h-887zM362 1778l123 112l252 -329l-80 -68z" />
<glyph unicode="&#xc9;" horiz-adv-x="1155" d="M164 0v1401h854v-131h-680v-465h573v-127h-573v-545h713v-133h-887zM541 1556l252 330l122 -108l-297 -285z" />
<glyph unicode="&#xca;" horiz-adv-x="1155" d="M164 0v1401h854v-131h-680v-465h573v-127h-573v-545h713v-133h-887zM236 1550l307 283h112l312 -279l-52 -59l-317 182l-315 -184z" />
<glyph unicode="&#xcb;" horiz-adv-x="1155" d="M164 0v1401h854v-131h-680v-465h573v-127h-573v-545h713v-133h-887zM324 1579q0 36 27 63t63 27q43 0 70.5 -25t27.5 -65q0 -39 -27 -64.5t-67 -25.5q-41 0 -67.5 25t-26.5 65zM709 1579q0 37 25.5 63.5t60.5 26.5q43 0 71.5 -25.5t28.5 -64.5t-28.5 -64.5t-71.5 -25.5 q-37 0 -61.5 25.5t-24.5 64.5z" />
<glyph unicode="&#xcc;" horiz-adv-x="540" d="M-6 1778l123 112l252 -329l-80 -68zM184 0v1403h172v-1403h-172z" />
<glyph unicode="&#xcd;" horiz-adv-x="540" d="M184 0v1403h172v-1403h-172zM199 1556l252 330l122 -108l-297 -285z" />
<glyph unicode="&#xce;" horiz-adv-x="540" d="M-94 1550l307 283h113l311 -279l-51 -59l-318 182l-315 -184zM184 0v1403h172v-1403h-172z" />
<glyph unicode="&#xcf;" horiz-adv-x="540" d="M-12 1579q0 36 27 63t63 27q43 0 70.5 -25t27.5 -65q0 -39 -27 -64.5t-67 -25.5q-41 0 -67.5 25t-26.5 65zM184 0v1403h172v-1403h-172zM373 1579q0 37 25.5 63.5t60.5 26.5q43 0 71.5 -25.5t28.5 -64.5t-28.5 -64.5t-71.5 -25.5q-37 0 -61.5 25.5t-24.5 64.5z" />
<glyph unicode="&#xd0;" horiz-adv-x="1316" d="M31 680v108h129v615h415q133 0 239.5 -37t177.5 -100.5t118 -153t67.5 -190.5t20.5 -217q0 -118 -22 -221t-71.5 -192.5t-123 -153.5t-182 -101t-242.5 -37h-397v680h-129zM338 133h201q36 0 68 2.5t83 15.5t92.5 34t87 63.5t76.5 99t51.5 145t20.5 197.5q0 112 -19 203 t-48 150.5t-72 103.5t-84 67t-90.5 37t-83.5 17.5t-72 3.5h-211v-484h334v-108h-334v-547z" />
<glyph unicode="&#xd1;" horiz-adv-x="1396" d="M164 0v1401h174q170 -261 512 -795l205 -321h10v1116h168v-1401h-170l-541 846l-184 295q-1 0 -3.5 -1t-4.5 -1v-1139h-166zM369 1612q25 70 72 111.5t106 41.5q51 0 156 -39.5t139 -39.5l116 81l58 -45q-24 -71 -70.5 -113t-105.5 -42q-53 0 -111 20t-107 40t-79 20 l-117 -80z" />
<glyph unicode="&#xd2;" horiz-adv-x="1429" d="M123 690q0 121 19.5 226t65 199.5t113.5 162t171 106.5t233 39q131 0 233 -39.5t167 -106t106.5 -161.5t58.5 -197.5t17 -222.5q0 -154 -37.5 -283t-108.5 -225t-183 -150t-253 -54q-602 0 -602 706zM303 688q0 -286 101 -428.5t321 -142.5q100 0 177.5 44.5t125 123.5 t72 181.5t24.5 223.5q0 602 -399 602q-422 0 -422 -604zM436 1778l123 112l252 -329l-80 -68z" />
<glyph unicode="&#xd3;" horiz-adv-x="1429" d="M123 690q0 121 19.5 226t65 199.5t113.5 162t171 106.5t233 39q131 0 233 -39.5t167 -106t106.5 -161.5t58.5 -197.5t17 -222.5q0 -154 -37.5 -283t-108.5 -225t-183 -150t-253 -54q-602 0 -602 706zM303 688q0 -286 101 -428.5t321 -142.5q100 0 177.5 44.5t125 123.5 t72 181.5t24.5 223.5q0 602 -399 602q-422 0 -422 -604zM621 1556l251 330l123 -108l-297 -285z" />
<glyph unicode="&#xd4;" horiz-adv-x="1429" d="M123 690q0 121 19.5 226t65 199.5t113.5 162t171 106.5t233 39q131 0 233 -39.5t167 -106t106.5 -161.5t58.5 -197.5t17 -222.5q0 -154 -37.5 -283t-108.5 -225t-183 -150t-253 -54q-602 0 -602 706zM303 688q0 -286 101 -428.5t321 -142.5q100 0 177.5 44.5t125 123.5 t72 181.5t24.5 223.5q0 602 -399 602q-422 0 -422 -604zM367 1550l307 283h112l312 -279l-51 -59l-318 182l-315 -184z" />
<glyph unicode="&#xd5;" horiz-adv-x="1429" d="M123 690q0 121 19.5 226t65 199.5t113.5 162t171 106.5t233 39q131 0 233 -39.5t167 -106t106.5 -161.5t58.5 -197.5t17 -222.5q0 -154 -37.5 -283t-108.5 -225t-183 -150t-253 -54q-602 0 -602 706zM303 688q0 -286 101 -428.5t321 -142.5q100 0 177.5 44.5t125 123.5 t72 181.5t24.5 223.5q0 602 -399 602q-422 0 -422 -604zM406 1616q25 70 72 111.5t106 41.5q51 0 156 -39.5t139 -39.5l116 82l58 -46q-24 -71 -70.5 -113t-105.5 -42q-53 0 -111 20t-107 40t-79 20l-117 -80z" />
<glyph unicode="&#xd6;" horiz-adv-x="1429" d="M123 690q0 121 19.5 226t65 199.5t113.5 162t171 106.5t233 39q131 0 233 -39.5t167 -106t106.5 -161.5t58.5 -197.5t17 -222.5q0 -154 -37.5 -283t-108.5 -225t-183 -150t-253 -54q-602 0 -602 706zM303 688q0 -286 101 -428.5t321 -142.5q100 0 177.5 44.5t125 123.5 t72 181.5t24.5 223.5q0 602 -399 602q-422 0 -422 -604zM436 1599q0 37 27 64t63 27q43 0 71 -25.5t28 -65.5q0 -39 -27.5 -64.5t-67.5 -25.5q-41 0 -67.5 25t-26.5 65zM821 1599q0 37 25.5 64t60.5 27q43 0 72 -26t29 -65t-29 -64.5t-72 -25.5q-37 0 -61.5 25.5t-24.5 64.5 z" />
<glyph unicode="&#xd7;" horiz-adv-x="1142" d="M223 328l269 266l-265 264l86 84l262 -264l259 260l88 -88l-258 -260l262 -260l-86 -86l-260 262l-269 -268z" />
<glyph unicode="&#xd8;" horiz-adv-x="1388" d="M96 -12l144 188q-138 177 -138 514q0 121 19.5 226t65 199.5t114 162t171.5 106.5t233 39q239 0 382 -133l103 137h102l-149 -194q143 -188 143 -537q0 -154 -37 -283t-108.5 -225t-183 -150t-252.5 -54q-265 0 -412 135l-98 -131h-99zM283 688q0 -242 69 -369l635 844 q-101 129 -282 129q-422 0 -422 -604zM393 244q103 -127 312 -127q100 0 177.5 44.5t125 123.5t72 181.5t24.5 223.5q0 252 -76 400z" />
<glyph unicode="&#xd9;" horiz-adv-x="1361" d="M147 504v899h172v-901q0 -190 94 -287.5t269 -97.5q176 0 270.5 97t94.5 288l-3 901h173v-899q0 -242 -135.5 -381t-401.5 -139q-533 0 -533 520zM428 1778l123 112l252 -329l-80 -68z" />
<glyph unicode="&#xda;" horiz-adv-x="1361" d="M147 504v899h172v-901q0 -190 94 -287.5t269 -97.5q176 0 270.5 97t94.5 288l-3 901h173v-899q0 -242 -135.5 -381t-401.5 -139q-533 0 -533 520zM575 1556l252 330l123 -108l-297 -285z" />
<glyph unicode="&#xdb;" horiz-adv-x="1361" d="M147 504v899h172v-901q0 -190 94 -287.5t269 -97.5q176 0 270.5 97t94.5 288l-3 901h173v-899q0 -242 -135.5 -381t-401.5 -139q-533 0 -533 520zM299 1548l319 279h117l324 -275l-53 -57l-330 178l-328 -180z" />
<glyph unicode="&#xdc;" horiz-adv-x="1361" d="M147 504v899h172v-901q0 -190 94 -287.5t269 -97.5q176 0 270.5 97t94.5 288l-3 901h173v-899q0 -242 -135.5 -381t-401.5 -139q-533 0 -533 520zM397 1591q0 36 27 63t63 27q43 0 71 -25t28 -65q0 -39 -27 -64.5t-67 -25.5q-41 0 -68 25t-27 65zM782 1591 q0 37 25.5 63.5t60.5 26.5q43 0 72 -25.5t29 -64.5t-29 -64.5t-72 -25.5q-37 0 -61.5 25.5t-24.5 64.5z" />
<glyph unicode="&#xdd;" horiz-adv-x="1097" d="M20 1403h183l192 -369l144 -284h8l155 297l195 356h178l-442 -789v-614h-182v606zM457 1520l252 329l122 -108l-296 -285z" />
<glyph unicode="&#xde;" horiz-adv-x="1136" d="M164 0v1403h174v-293h285q198 0 317 -106t119 -302q0 -55 -12 -109.5t-42.5 -111.5t-76 -100t-120 -70.5t-167.5 -27.5h-303v-283h-174zM338 414h278q53 0 97.5 14t83.5 44.5t61.5 87.5t22.5 136q0 139 -75.5 210t-197.5 71h-270v-563z" />
<glyph unicode="&#xdf;" horiz-adv-x="1200" d="M51 786v111h146v221q0 42 9.5 86t36.5 94t68.5 89t112 64.5t160.5 25.5q99 0 172 -26.5t110.5 -68.5t54.5 -84t17 -84q0 -56 -22 -106t-53 -85.5t-62.5 -67t-53.5 -64.5t-22 -64q0 -50 42 -101t122 -114q33 -25 41 -31.5t37.5 -31t38.5 -34.5t32.5 -34t32 -39.5t23.5 -41 t20.5 -48t10.5 -52t5 -60.5q-7 -114 -90.5 -190.5t-251.5 -76.5q-75 0 -154.5 14.5t-135.5 37.5l37 122q147 -51 249 -51q83 0 131 39t48 103q0 39 -10 71.5t-33 61.5t-40 46.5t-52.5 47.5t-49.5 43q-108 99 -145 145q-72 88 -72 166q0 43 22 85t53.5 76t63.5 66.5t54 69.5 t22 72q0 15 -2.5 30.5t-14.5 40.5t-32 43.5t-59.5 32t-92.5 13.5q-107 0 -160 -67t-53 -171v-1110h-165v786h-146z" />
<glyph unicode="&#xe0;" horiz-adv-x="999" d="M76 264q0 137 93.5 216t246.5 87l301 17v71q0 128 -45 182t-170 54q-143 0 -316 -57q-18 68 -32 110q183 78 385 78q168 0 254 -78t86 -256v-688h-148l-10 109q-2 2 -4 2q-54 -43 -108 -71t-102 -38.5t-75 -13t-61 -2.5q-82 0 -142.5 26t-92 69t-46 88.5t-14.5 94.5z M254 281q0 -90 45 -134.5t141 -44.5q131 0 277 127v248l-260 -16q-100 -6 -151.5 -52.5t-51.5 -127.5zM272 1380l123 117l252 -332l-78 -69z" />
<glyph unicode="&#xe1;" horiz-adv-x="999" d="M76 264q0 137 93.5 216t246.5 87l301 17v71q0 128 -45 182t-170 54q-143 0 -316 -57q-18 68 -32 110q183 78 385 78q168 0 254 -78t86 -256v-688h-148l-10 109q-2 2 -4 2q-54 -43 -108 -71t-102 -38.5t-75 -13t-61 -2.5q-82 0 -142.5 26t-92 69t-46 88.5t-14.5 94.5z M254 281q0 -90 45 -134.5t141 -44.5q131 0 277 127v248l-260 -16q-100 -6 -151.5 -52.5t-51.5 -127.5zM428 1159l252 332l119 -111l-297 -284z" />
<glyph unicode="&#xe2;" horiz-adv-x="999" d="M76 264q0 137 93.5 216t246.5 87l301 17v71q0 128 -45 182t-170 54q-143 0 -316 -57q-18 68 -32 110q183 78 385 78q168 0 254 -78t86 -256v-688h-148l-10 109q-2 2 -4 2q-54 -43 -108 -71t-102 -38.5t-75 -13t-61 -2.5q-82 0 -142.5 26t-92 69t-46 88.5t-14.5 94.5z M156 1145l307 293h112l312 -289l-51 -59l-318 190l-315 -193zM254 281q0 -90 45 -134.5t141 -44.5q131 0 277 127v248l-260 -16q-100 -6 -151.5 -52.5t-51.5 -127.5z" />
<glyph unicode="&#xe3;" horiz-adv-x="999" d="M76 264q0 137 93.5 216t246.5 87l301 17v71q0 128 -45 182t-170 54q-143 0 -316 -57q-18 68 -32 110q183 78 385 78q168 0 254 -78t86 -256v-688h-148l-10 109q-2 2 -4 2q-54 -43 -108 -71t-102 -38.5t-75 -13t-61 -2.5q-82 0 -142.5 26t-92 69t-46 88.5t-14.5 94.5z M197 1219q25 70 72 111.5t106 41.5q51 0 156 -40t139 -40l116 82l58 -45q-24 -71 -70.5 -113t-105.5 -42q-53 0 -111 20t-107 39.5t-79 19.5l-117 -79zM254 281q0 -90 45 -134.5t141 -44.5q131 0 277 127v248l-260 -16q-100 -6 -151.5 -52.5t-51.5 -127.5z" />
<glyph unicode="&#xe4;" horiz-adv-x="999" d="M76 264q0 137 93.5 216t246.5 87l301 17v71q0 128 -45 182t-170 54q-143 0 -316 -57q-18 68 -32 110q183 78 385 78q168 0 254 -78t86 -256v-688h-148l-10 109q-2 2 -4 2q-54 -43 -108 -71t-102 -38.5t-75 -13t-61 -2.5q-82 0 -142.5 26t-92 69t-46 88.5t-14.5 94.5z M231 1235q0 37 28.5 63.5t64.5 26.5q43 0 69.5 -25t26.5 -65q0 -39 -26.5 -64.5t-67.5 -25.5q-40 0 -67.5 26t-27.5 64zM254 281q0 -90 45 -134.5t141 -44.5q131 0 277 127v248l-260 -16q-100 -6 -151.5 -52.5t-51.5 -127.5zM616 1235q0 38 26.5 64t62.5 26q43 0 71.5 -25.5 t28.5 -64.5q0 -38 -28.5 -64t-71.5 -26q-38 0 -63.5 26t-25.5 64z" />
<glyph unicode="&#xe5;" horiz-adv-x="999" d="M76 264q0 137 93.5 216t246.5 87l301 17v71q0 128 -45 182t-170 54q-143 0 -316 -57q-18 68 -32 110q183 78 385 78q168 0 254 -78t86 -256v-688h-148l-10 109q-2 2 -4 2q-54 -43 -108 -71t-102 -38.5t-75 -13t-61 -2.5q-82 0 -142.5 26t-92 69t-46 88.5t-14.5 94.5z M254 281q0 -90 45 -134.5t141 -44.5q131 0 277 127v248l-260 -16q-100 -6 -151.5 -52.5t-51.5 -127.5zM297 1343q0 87 65 151.5t158 64.5q91 0 154 -63.5t63 -152.5q0 -91 -63 -153t-154 -62q-93 0 -158 62.5t-65 152.5zM389 1337q0 -54 36 -90.5t95 -36.5q55 0 90 37t35 90 q0 56 -35 94.5t-90 38.5q-58 0 -94.5 -37.5t-36.5 -95.5z" />
<glyph unicode="&#xe6;" horiz-adv-x="1622" d="M68 270q0 132 96 214t266 83l293 2v84q0 126 -55 177t-181 51q-154 0 -311 -56l-37 113q177 80 383 80q239 0 307 -160q110 164 328 164q395 0 395 -477v-80h-663q-4 -348 282 -348q85 0 156.5 16t159.5 53l39 -106q-171 -92 -367 -92q-249 0 -354 153 q-72 -55 -142.5 -90.5t-131.5 -48t-92.5 -15.5t-73.5 -3q-68 0 -122 19t-86 48.5t-53 69t-28.5 76t-7.5 73.5zM246 289q0 -183 186 -183q63 0 162 35t164 92q-34 92 -37 232h-264q-102 0 -156.5 -47.5t-54.5 -128.5zM893 569h502q0 156 -54.5 240t-183.5 84 q-241 0 -264 -324z" />
<glyph unicode="&#xe7;" horiz-adv-x="937" d="M94 487q0 70 11 137t42 141.5t79.5 129.5t132 91t190.5 36q179 0 305 -80l-59 -119q-118 64 -238 64q-144 0 -216.5 -104.5t-72.5 -288.5q0 -377 277 -377q73 0 137.5 18t148.5 64l52 -111q-133 -98 -332 -104q-67 -85 -86 -113q103 -5 163 -45.5t60 -116.5 q0 -92 -93 -150.5t-273 -58.5v74q241 23 241 121q0 26 -17.5 44t-50 26t-64.5 11t-75 3l-26 39q24 30 66.5 87t62.5 83q-365 39 -365 499z" />
<glyph unicode="&#xe8;" horiz-adv-x="1034" d="M98 498q0 42 4.5 85t17 96.5t32.5 100t54 92t78.5 78t109.5 52.5t143 20q64 0 118.5 -13t93.5 -32.5t70 -51t50.5 -61.5t33.5 -70t21 -70t11 -69.5t4.5 -60t0.5 -49.5v-80h-670q-1 -74 12.5 -134t45 -110t89 -78t138.5 -28q84 0 157 17t162 54l41 -106q-174 -92 -372 -92 q-104 0 -183 27t-128 72t-79.5 111.5t-42.5 138.5t-12 161zM266 1380l123 117l252 -332l-78 -69zM272 573h510q0 156 -55 241t-186 85q-246 0 -269 -326z" />
<glyph unicode="&#xe9;" horiz-adv-x="1034" d="M98 498q0 42 4.5 85t17 96.5t32.5 100t54 92t78.5 78t109.5 52.5t143 20q64 0 118.5 -13t93.5 -32.5t70 -51t50.5 -61.5t33.5 -70t21 -70t11 -69.5t4.5 -60t0.5 -49.5v-80h-670q-1 -74 12.5 -134t45 -110t89 -78t138.5 -28q84 0 157 17t162 54l41 -106q-174 -92 -372 -92 q-104 0 -183 27t-128 72t-79.5 111.5t-42.5 138.5t-12 161zM272 573h510q0 156 -55 241t-186 85q-246 0 -269 -326zM436 1159l252 332l119 -111l-297 -284z" />
<glyph unicode="&#xea;" horiz-adv-x="1034" d="M98 498q0 42 4.5 85t17 96.5t32.5 100t54 92t78.5 78t109.5 52.5t143 20q64 0 118.5 -13t93.5 -32.5t70 -51t50.5 -61.5t33.5 -70t21 -70t11 -69.5t4.5 -60t0.5 -49.5v-80h-670q-1 -74 12.5 -134t45 -110t89 -78t138.5 -28q84 0 157 17t162 54l41 -106q-174 -92 -372 -92 q-104 0 -183 27t-128 72t-79.5 111.5t-42.5 138.5t-12 161zM184 1145l308 293h112l311 -289l-51 -59l-317 190l-316 -193zM272 573h510q0 156 -55 241t-186 85q-246 0 -269 -326z" />
<glyph unicode="&#xeb;" horiz-adv-x="1034" d="M98 498q0 42 4.5 85t17 96.5t32.5 100t54 92t78.5 78t109.5 52.5t143 20q64 0 118.5 -13t93.5 -32.5t70 -51t50.5 -61.5t33.5 -70t21 -70t11 -69.5t4.5 -60t0.5 -49.5v-80h-670q-1 -74 12.5 -134t45 -110t89 -78t138.5 -28q84 0 157 17t162 54l41 -106q-174 -92 -372 -92 q-104 0 -183 27t-128 72t-79.5 111.5t-42.5 138.5t-12 161zM264 1235q0 37 28 63.5t64 26.5q43 0 70 -25t27 -65q0 -38 -27 -64t-68 -26q-40 0 -67 26t-27 64zM272 573h510q0 156 -55 241t-186 85q-246 0 -269 -326zM649 1235q0 38 26 64t62 26q43 0 72 -25.5t29 -64.5 q0 -38 -29 -64t-72 -26q-38 0 -63 26t-25 64z" />
<glyph unicode="&#xec;" horiz-adv-x="520" d="M-12 1380l123 117l251 -332l-77 -69zM174 0v999h166v-999h-166z" />
<glyph unicode="&#xed;" horiz-adv-x="520" d="M174 0v999h166v-999h-166zM190 1159l252 332l119 -111l-297 -284z" />
<glyph unicode="&#xee;" horiz-adv-x="557" d="M-88 1145l307 293h113l311 -289l-51 -59l-318 190l-315 -193zM199 0v999h166v-999h-166z" />
<glyph unicode="&#xef;" horiz-adv-x="520" d="M-33 1235q0 37 28 63.5t64 26.5q43 0 70 -25t27 -65q0 -38 -27 -64t-68 -26q-40 0 -67 26t-27 64zM174 0v999h166v-999h-166zM352 1235q0 38 26 64t62 26q43 0 72 -25.5t29 -64.5q0 -38 -29 -64t-72 -26q-38 0 -63 26t-25 64z" />
<glyph unicode="&#xf0;" horiz-adv-x="1048" d="M86 438q0 93 27.5 178.5t79.5 154t134.5 109t184.5 40.5q140 0 252 -60q-59 173 -160 295l-188 -127l-49 68l180 121q-89 94 -211 172l55 94q147 -75 266 -191l187 125l49 -67l-176 -117q126 -142 189.5 -323t58.5 -382q-1 -77 -13 -148t-43.5 -145t-80.5 -128 t-130.5 -88.5t-185.5 -34.5q-100 0 -177.5 28.5t-123.5 73.5t-75 107t-39.5 121t-10.5 124zM250 444q0 -331 272 -331q68 0 119.5 27t81.5 67.5t49 96t25 103.5t6 99q0 88 -25 213q-116 76 -254 76q-73 0 -128 -32t-85.5 -85t-45.5 -112t-15 -122z" />
<glyph unicode="&#xf1;" horiz-adv-x="1052" d="M119 0v999h164l2 -86l6 -4q82 53 178 83t170 30q57 0 102 -10.5t75 -27t52 -42.5t34 -52t19 -61t9 -63.5t2 -65.5v-700h-166v659q0 47 -3 77.5t-13 61.5t-28.5 48t-51 28t-78.5 11q-66 0 -149.5 -29t-155.5 -70v-786h-168zM180 1243q25 71 72 112.5t106 41.5 q51 0 156 -40t139 -40l117 82l57 -45q-24 -71 -70.5 -113.5t-105.5 -42.5q-53 0 -111 20t-107 40t-79 20l-116 -80z" />
<glyph unicode="&#xf2;" horiz-adv-x="1081" d="M98 494q0 82 15 157t49.5 143t85.5 117.5t128.5 79t172.5 29.5q97 0 173 -29.5t124.5 -78.5t80 -117.5t44 -141t12.5 -155.5q0 -81 -13.5 -152.5t-46.5 -139t-83.5 -116t-130 -77.5t-181.5 -29q-96 0 -170.5 27.5t-123 74t-79.5 112.5t-44 138.5t-13 157.5zM272 494 q0 -65 6 -116.5t24 -103t47.5 -85.5t80 -55t119.5 -21q260 0 260 381q0 397 -260 397q-64 0 -113.5 -23.5t-79.5 -61.5t-49.5 -91.5t-27 -107t-7.5 -113.5zM281 1380l122 117l252 -332l-77 -69z" />
<glyph unicode="&#xf3;" horiz-adv-x="1081" d="M98 494q0 82 15 157t49.5 143t85.5 117.5t128.5 79t172.5 29.5q97 0 173 -29.5t124.5 -78.5t80 -117.5t44 -141t12.5 -155.5q0 -81 -13.5 -152.5t-46.5 -139t-83.5 -116t-130 -77.5t-181.5 -29q-96 0 -170.5 27.5t-123 74t-79.5 112.5t-44 138.5t-13 157.5zM272 494 q0 -65 6 -116.5t24 -103t47.5 -85.5t80 -55t119.5 -21q260 0 260 381q0 397 -260 397q-64 0 -113.5 -23.5t-79.5 -61.5t-49.5 -91.5t-27 -107t-7.5 -113.5zM479 1159l252 332l119 -111l-297 -284z" />
<glyph unicode="&#xf4;" horiz-adv-x="1081" d="M98 494q0 82 15 157t49.5 143t85.5 117.5t128.5 79t172.5 29.5q97 0 173 -29.5t124.5 -78.5t80 -117.5t44 -141t12.5 -155.5q0 -81 -13.5 -152.5t-46.5 -139t-83.5 -116t-130 -77.5t-181.5 -29q-96 0 -170.5 27.5t-123 74t-79.5 112.5t-44 138.5t-13 157.5zM190 1145 l308 293h112l312 -289l-52 -59l-317 190l-315 -193zM272 494q0 -65 6 -116.5t24 -103t47.5 -85.5t80 -55t119.5 -21q260 0 260 381q0 397 -260 397q-64 0 -113.5 -23.5t-79.5 -61.5t-49.5 -91.5t-27 -107t-7.5 -113.5z" />
<glyph unicode="&#xf5;" horiz-adv-x="1081" d="M98 494q0 82 15 157t49.5 143t85.5 117.5t128.5 79t172.5 29.5q97 0 173 -29.5t124.5 -78.5t80 -117.5t44 -141t12.5 -155.5q0 -81 -13.5 -152.5t-46.5 -139t-83.5 -116t-130 -77.5t-181.5 -29q-96 0 -170.5 27.5t-123 74t-79.5 112.5t-44 138.5t-13 157.5zM225 1217 q25 70 72 111.5t106 41.5q51 0 156 -40t139 -40l117 82l57 -45q-24 -71 -70.5 -113.5t-105.5 -42.5q-53 0 -111 20t-107 40t-79 20l-116 -80zM272 494q0 -65 6 -116.5t24 -103t47.5 -85.5t80 -55t119.5 -21q260 0 260 381q0 397 -260 397q-64 0 -113.5 -23.5t-79.5 -61.5 t-49.5 -91.5t-27 -107t-7.5 -113.5z" />
<glyph unicode="&#xf6;" horiz-adv-x="1081" d="M98 494q0 82 15 157t49.5 143t85.5 117.5t128.5 79t172.5 29.5q97 0 173 -29.5t124.5 -78.5t80 -117.5t44 -141t12.5 -155.5q0 -81 -13.5 -152.5t-46.5 -139t-83.5 -116t-130 -77.5t-181.5 -29q-96 0 -170.5 27.5t-123 74t-79.5 112.5t-44 138.5t-13 157.5zM266 1235 q0 37 28 63.5t64 26.5q43 0 70 -25t27 -65q0 -38 -27 -64t-68 -26q-40 0 -67 26t-27 64zM272 494q0 -65 6 -116.5t24 -103t47.5 -85.5t80 -55t119.5 -21q260 0 260 381q0 397 -260 397q-64 0 -113.5 -23.5t-79.5 -61.5t-49.5 -91.5t-27 -107t-7.5 -113.5zM651 1235 q0 38 26 64t62 26q43 0 72 -25.5t29 -64.5q0 -38 -29 -64t-72 -26q-38 0 -63 26t-25 64z" />
<glyph unicode="&#xf7;" horiz-adv-x="1142" d="M174 553v119h797v-119h-797zM471 287q0 43 29.5 71.5t72.5 28.5t73 -29t30 -71t-30.5 -73.5t-70.5 -31.5q-42 0 -73 31.5t-31 73.5zM471 936q0 43 29.5 72.5t72.5 29.5t73 -29.5t30 -72.5q0 -42 -30.5 -73.5t-70.5 -31.5q-42 0 -73 31.5t-31 73.5z" />
<glyph unicode="&#xf8;" horiz-adv-x="1046" d="M74 -14l108 137q-100 127 -100 371q0 82 15 157t49 143t85 117.5t127.5 79t171.5 29.5q174 0 283 -98l74 96q13 0 41 1t41 1l-111 -143q107 -137 107 -379q0 -81 -13.5 -152.5t-46.5 -139t-83.5 -115t-130 -76.5t-181.5 -29q-179 0 -281 88l-67 -86q-16 0 -45 -1t-43 -1z M254 500q0 -154 41 -244l418 549q-64 84 -183 84q-63 0 -112 -23t-79 -60t-49.5 -89t-27 -104.5t-8.5 -112.5zM330 190q67 -77 200 -77q261 0 261 381q0 152 -46 249z" />
<glyph unicode="&#xf9;" horiz-adv-x="1032" d="M119 297v702h166v-661q0 -47 3 -77.5t13 -60.5t28 -47t50 -27.5t78 -10.5q62 0 142.5 33t148.5 94v757q28 0 82.5 1t80.5 1v-1001h-161l-2 113l-5 4q-87 -78 -176.5 -109t-158.5 -31q-66 0 -116 13t-80.5 38t-50 53t-28.5 68.5t-11.5 72t-2.5 75.5zM262 1380l123 117 l252 -332l-78 -69z" />
<glyph unicode="&#xfa;" horiz-adv-x="1032" d="M119 297v702h166v-661q0 -47 3 -77.5t13 -60.5t28 -47t50 -27.5t78 -10.5q62 0 142.5 33t148.5 94v757q28 0 82.5 1t80.5 1v-1001h-161l-2 113l-5 4q-87 -78 -176.5 -109t-158.5 -31q-66 0 -116 13t-80.5 38t-50 53t-28.5 68.5t-11.5 72t-2.5 75.5zM432 1159l252 332 l119 -111l-297 -284z" />
<glyph unicode="&#xfb;" horiz-adv-x="1032" d="M119 297v702h166v-661q0 -47 3 -77.5t13 -60.5t28 -47t50 -27.5t78 -10.5q62 0 142.5 33t148.5 94v757q28 0 82.5 1t80.5 1v-1001h-161l-2 113l-5 4q-87 -78 -176.5 -109t-158.5 -31q-66 0 -116 13t-80.5 38t-50 53t-28.5 68.5t-11.5 72t-2.5 75.5zM154 1145l307 293h112 l312 -289l-51 -59l-318 190l-315 -193z" />
<glyph unicode="&#xfc;" horiz-adv-x="1032" d="M119 297v702h166v-661q0 -47 3 -77.5t13 -60.5t28 -47t50 -27.5t78 -10.5q62 0 142.5 33t148.5 94v757q28 0 82.5 1t80.5 1v-1001h-161l-2 113l-5 4q-87 -78 -176.5 -109t-158.5 -31q-66 0 -116 13t-80.5 38t-50 53t-28.5 68.5t-11.5 72t-2.5 75.5zM244 1235 q0 37 28 63.5t64 26.5q43 0 69.5 -25t26.5 -65q0 -39 -26.5 -64.5t-67.5 -25.5q-40 0 -67 26t-27 64zM629 1235q0 38 26 64t62 26q43 0 71.5 -25.5t28.5 -64.5q0 -38 -28.5 -64t-71.5 -26q-38 0 -63 26t-25 64z" />
<glyph unicode="&#xfd;" horiz-adv-x="937" d="M-2 -408q3 23 12.5 66.5t12.5 58.5q116 -22 165 -22q63 0 102 29t68 116l41 123q-67 187 -190 536.5t-176 499.5h172q237 -734 268 -833h10l258 833h166q-262 -794 -395 -1189q-45 -136 -115 -194t-182 -58q-101 0 -217 34zM385 1159l252 332l119 -111l-297 -284z" />
<glyph unicode="&#xfe;" horiz-adv-x="1067" d="M119 -426v1829h166v-500q0 -2 2 -2q60 49 143 80t160 31q104 0 179.5 -39t118 -109t62 -155.5t19.5 -190.5q0 -119 -22 -214t-69 -169.5t-127 -114.5t-188 -40q-65 0 -143 18t-133 53l-2 -477h-166zM287 182q36 -26 111 -48.5t141 -22.5q55 0 99.5 20.5t81 66t57 127.5 t20.5 195q0 196 -64.5 278.5t-183.5 82.5q-60 0 -142 -33t-120 -70v-596z" />
<glyph unicode="&#xff;" horiz-adv-x="937" d="M-2 -408q3 23 12.5 66.5t12.5 58.5q116 -22 165 -22q63 0 102 29t68 116l41 123q-67 187 -190 536.5t-176 499.5h172q237 -734 268 -833h10l258 833h166q-262 -794 -395 -1189q-45 -136 -115 -194t-182 -58q-101 0 -217 34zM199 1235q0 37 28 63.5t64 26.5q43 0 69.5 -25 t26.5 -65q0 -39 -26.5 -64.5t-67.5 -25.5q-40 0 -67 26t-27 64zM584 1235q0 38 26 64t62 26q43 0 71.5 -25.5t28.5 -64.5q0 -38 -28.5 -64t-71.5 -26q-38 0 -63 26t-25 64z" />
<glyph unicode="&#x152;" horiz-adv-x="1658" d="M98 690q0 121 19.5 226t65 199.5t113.5 162t171 106.5t233 39q107 0 189 -24h676v-127h-639v-473h534v-125h-534v-547h671v-127h-751q-79 -14 -146 -14q-602 0 -602 704zM279 686q0 -286 100.5 -428.5t320.5 -142.5q34 0 50 2v1171q-7 0 -25 1t-27 1q-419 0 -419 -604z " />
<glyph unicode="&#x153;" horiz-adv-x="1703" d="M80 494q0 82 15 157t49 143t85 117.5t127.5 79t171.5 29.5q246 0 351 -201q108 203 356 203q80 0 144 -20.5t104.5 -51.5t70 -77t44 -86.5t23 -92.5t10 -81.5t1.5 -65.5v-78h-665q-1 -74 12.5 -134t44 -111t87.5 -79t138 -28q85 0 157 16.5t159 54.5l41 -106 q-174 -92 -369 -92q-267 0 -363 184q-113 -190 -364 -190q-118 0 -204 41t-134 114t-70 160.5t-22 194.5zM254 494q0 -65 6 -116.5t23.5 -103t47 -85.5t79.5 -55t118 -21q263 0 263 381q0 59 -6 110t-23.5 106t-45.5 93t-76 63t-112 25t-113 -23.5t-79 -61.5t-49 -91.5 t-26 -106.5t-7 -114zM969 569h506q0 157 -55 241.5t-185 84.5q-69 0 -120 -26.5t-80.5 -73.5t-45 -102.5t-20.5 -123.5z" />
<glyph unicode="&#x178;" horiz-adv-x="1097" d="M20 1403h183l192 -369l144 -284h8l155 297l195 356h178l-442 -789v-614h-182v606zM256 1579q0 36 27 63t63 27q43 0 70.5 -25t27.5 -65q0 -39 -27 -64.5t-67 -25.5q-41 0 -67.5 25t-26.5 65zM641 1579q0 37 25.5 63.5t60.5 26.5q43 0 71.5 -25.5t28.5 -64.5t-28.5 -64.5 t-71.5 -25.5q-37 0 -61.5 25.5t-24.5 64.5z" />
<glyph unicode="&#x2c6;" horiz-adv-x="1030" d="M150 1145l307 293h112l312 -289l-52 -59l-317 190l-315 -193z" />
<glyph unicode="&#x2dc;" horiz-adv-x="1030" d="M195 1217q25 70 72 111.5t106 41.5q51 0 156 -40t139 -40l116 82l58 -45q-24 -71 -70.5 -113.5t-105.5 -42.5q-53 0 -111 20t-107 40t-79 20l-117 -80z" />
<glyph unicode="&#x2000;" horiz-adv-x="945" />
<glyph unicode="&#x2001;" horiz-adv-x="1890" />
<glyph unicode="&#x2002;" horiz-adv-x="945" />
<glyph unicode="&#x2003;" horiz-adv-x="1890" />
<glyph unicode="&#x2004;" horiz-adv-x="630" />
<glyph unicode="&#x2005;" horiz-adv-x="472" />
<glyph unicode="&#x2006;" horiz-adv-x="315" />
<glyph unicode="&#x2007;" horiz-adv-x="315" />
<glyph unicode="&#x2008;" horiz-adv-x="236" />
<glyph unicode="&#x2009;" horiz-adv-x="378" />
<glyph unicode="&#x200a;" horiz-adv-x="105" />
<glyph unicode="&#x2010;" horiz-adv-x="749" d="M111 471v139h528v-139h-528z" />
<glyph unicode="&#x2011;" horiz-adv-x="749" d="M111 471v139h528v-139h-528z" />
<glyph unicode="&#x2012;" horiz-adv-x="749" d="M111 471v139h528v-139h-528z" />
<glyph unicode="&#x2013;" horiz-adv-x="1024" d="M63 463v123h902v-123h-902z" />
<glyph unicode="&#x2014;" horiz-adv-x="2048" d="M70 463v123h1900v-123h-1900z" />
<glyph unicode="&#x2018;" horiz-adv-x="440" d="M106 1143q0 86 61.5 178.5t147.5 136.5l41 -55q-87 -80 -92 -182q74 -22 74 -105q0 -42 -33 -74t-78 -32q-55 0 -88 37t-33 96z" />
<glyph unicode="&#x2019;" horiz-adv-x="440" d="M109 1065q84 77 92 180q-35 10 -54.5 38t-19.5 67q0 43 33 75.5t78 32.5q55 0 87.5 -37.5t32.5 -95.5q0 -87 -60 -179t-148 -136z" />
<glyph unicode="&#x201a;" horiz-adv-x="430" d="M82 -201q83 80 92 191q-35 9 -55.5 36t-20.5 64q0 43 33 76t80 33q53 0 86 -37.5t33 -93.5q0 -88 -59.5 -183.5t-147.5 -138.5z" />
<glyph unicode="&#x201c;" horiz-adv-x="702" d="M104 1143q0 88 60 178.5t149 136.5l41 -55q-87 -80 -92 -182q34 -11 54 -38.5t20 -66.5q0 -42 -33 -74t-80 -32q-54 0 -86.5 37t-32.5 96zM379 1143q0 86 61.5 178.5t147.5 136.5q41 -53 43 -55q-89 -79 -94 -182q73 -22 73 -105q0 -42 -32.5 -74t-77.5 -32q-55 0 -88 37 t-33 96z" />
<glyph unicode="&#x201d;" horiz-adv-x="702" d="M106 1065q87 77 95 180q-35 10 -54.5 38t-19.5 67q0 44 32.5 76t78.5 32q55 0 87.5 -37.5t32.5 -95.5q0 -87 -60 -179t-148 -136zM383 1065q87 80 92 180q-35 10 -54.5 38t-19.5 67q0 43 33 75.5t80 32.5q53 0 86 -37.5t33 -95.5q0 -88 -60 -179.5t-149 -135.5z" />
<glyph unicode="&#x201e;" horiz-adv-x="698" d="M82 -201q83 80 92 191q-35 9 -55.5 36t-20.5 64q0 43 33 76t80 33q53 0 86 -37.5t33 -93.5q0 -88 -59.5 -183.5t-147.5 -138.5zM362 -201q84 81 93 191q-35 9 -55.5 36t-20.5 64q0 43 33 76t80 33q53 0 85.5 -37t32.5 -94q0 -88 -58 -183.5t-146 -138.5z" />
<glyph unicode="&#x2022;" horiz-adv-x="657" d="M109 561q0 92 64.5 157.5t154.5 65.5t154.5 -65.5t64.5 -157.5q0 -89 -65 -155t-154 -66t-154 66t-65 155z" />
<glyph unicode="&#x2026;" horiz-adv-x="1306" d="M94 92q0 43 33 75t78 32q44 0 76 -32t32 -75q0 -45 -32 -78.5t-74 -33.5q-46 0 -79.5 33t-33.5 79zM532 92q0 43 32 75t77 32t77 -32t32 -75q0 -46 -32 -79t-75 -33q-46 0 -78.5 33t-32.5 79zM995 92q0 43 32.5 75t76.5 32q45 0 76.5 -32t31.5 -75q0 -46 -31.5 -79 t-74.5 -33q-46 0 -78.5 33t-32.5 79z" />
<glyph unicode="&#x202f;" horiz-adv-x="378" />
<glyph unicode="&#x2039;" horiz-adv-x="645" d="M127 346v80l299 326l70 -54l-207 -313l207 -311l-68 -51z" />
<glyph unicode="&#x203a;" horiz-adv-x="645" d="M127 74l205 311l-205 313l70 54l299 -326v-80l-301 -323z" />
<glyph unicode="&#x205f;" horiz-adv-x="472" />
<glyph unicode="&#x20ac;" d="M57 553v100h82v35q0 55 2 86h-84v98h99q13 86 38.5 161t71.5 147.5t108.5 124.5t154 83.5t202.5 32.5q187 0 342 -57l-29 -129q-141 47 -296 47q-176 0 -281.5 -107t-136.5 -303h592v-98h-605q-2 -27 -2 -84v-37h607v-100h-600q10 -98 36 -172.5t74.5 -134.5t130 -91.5 t193.5 -31.5q133 0 317 47l29 -125q-70 -27 -178 -44t-199 -17q-143 0 -250 40t-175 116.5t-105.5 178t-49.5 234.5h-88z" />
<glyph unicode="&#x2122;" horiz-adv-x="1476" d="M70 1315v84h546v-84h-219v-572h-112v572h-215zM690 741v658h123q20 -52 92.5 -239t112.5 -288l213 527h119v-658h-107v433q-76 -173 -182 -433h-88l-172 424h-6v-424h-105z" />
<glyph unicode="&#xe000;" horiz-adv-x="1003" d="M0 0v1004h1004v-1004h-1004z" />
</font>
</defs>
</svg>
