<?xml version="1.0" encoding="utf-8"?>
<!-- Generator: Adobe Illustrator 19.2.1, SVG Export Plug-In . SVG Version: 6.00 Build 0)  -->
<svg version="1.1" id="Layer_1" xmlns="http://www.w3.org/2000/svg" xmlns:xlink="http://www.w3.org/1999/xlink" x="0px" y="0px"
	 width="200px" height="200px" viewBox="0 0 200 200" style="enable-background:new 0 0 200 200;" xml:space="preserve">
<style type="text/css">
	.st0{fill:#F58220;}
	.st1{fill:#FFFFFF;}
</style>
<g>
	<g>
		<path class="st0" d="M112.4,6.3c-1.2-2.6,1.9-1.9,2.9-2.9c4.3,1,0.7,9.6,6.2,5.3l2.4,3.8c1.9,0.5,0.7-2.6,2.9-1.7
			c2.4,7.7,0,13.2-1.7,21.3c-4.8,0.7,0,4.8-1.7,6.2c-1.7-0.5-1.9,1.2-2.9,1.9c1,4.1-4.3,5.3-0.7,9.6c1,3.3-2.2,0.7-2.9,2.9l2.9,1.9
			c-3.1,3.3-1.2,13.2-9.1,13.6c2.4,3.1-2.2,2.9-2.9,5.3c-4.5,0-6.9,1.2-9.8,4.1c-1.4-1-4.1-1-5.3,0.5v1.7c-2.9-0.7-5.7-3.1-8.6-2.2
			c0.2-1-1-1.4-0.5-2.4c-1.4,0.2-4.3,0-5.7-1.7c0.2-0.5,0.7-0.7,0.5-1.2c-0.7-1.9-3.3-1.2-4.5-0.5c-2.6-2.2,1.2-7.4-3.3-8.1l1.2-2.9
			c-1-1-2.4-0.2-2.9-1.7c2.6-4.1-5.7-7.9,0.5-12.2v-1.7c1.7,0.2,3.6,2.4,5.3,0c-2.9-2.2-1.4-6.2-2.9-9.1c2.4-2.2,4.3-4.5,3.8-8.1
			c2.2-1.4,4.1-4.8,4.1-8.6c1.2-0.2,1.9-1.7,2.9,0c0.2,1-1.4,1.7,0,2.4c1.7-2.6,1.4-6,4.1-8.1c1.4,0,2.4,1,4.1,0.7
			c3.1-2.2-0.7-6.7,4.5-6.5c0,1-1.4,1.7,0,2.4c1.9-3.6,6,0.2,6.2-4.5c2.6-1,5.5,1,5.7-2.9C109.3,2.9,110,11.6,112.4,6.3z"/>
		<path class="st1" d="M95.6,12.5c0.2,0.7-0.2,1-0.5,1.2v-1.2H95.6z"/>
		<polygon class="st1" points="91.8,16.1 91.1,14.9 91.8,14.9 		"/>
		<path class="st0" d="M57.8,31.6L56.6,35l5.3,0.5c0,0.7-0.2,1.4,0.5,1.9h1.7c-0.7,2.9,4.3,5.7,0,7.9c2.9,2.6-4.3,5.3,0.7,6.9
			c-2.4,3.6-2.4,8.4-0.7,12.7h-2.2c0.7,2.6-1,6.5-3.6,7.9c3.3,1-1.2,2.6,0,4.8c-1.4,0.5-1.4,2.9-2.2,4.5l-4.1,5l-0.5-0.5
			c-2.9,0.7-3.8,5.7-6.9,2.4c-0.7,1-1.7,1.2-2.9,1c-1.7-2.9-3.3,2.9-5.7,2.4c-2.6,0-4.3-0.7-6.5,1.2c0.7,0.2,0.7,1,0.7,1.7
			c-3.8-1-8.8,4.8-12.2-0.5c-2.9-0.2-3.1-2.9-6.2-3.6l1.2-2.2l-4.5-1.9l2.2-2.2c-3.1,1.7-4.3-2.6-6.9-3.6v-1
			c1.7-0.7,2.2,1.7,3.6,1.7l1.2-1.2c-1.7-2.4-2.6-1.2-4.8-2.4c-0.2-1.7-0.5-4.8,1.2-6.2c-0.2-1-1.4-0.5-2.2-0.5
			c2.6-3.8-0.7-7.7,2.9-11c0.2-2.2-0.7-5.7,2.9-5.3c-1.2-1.7,2.2-1.7,2.9-3.3l-1.9-1.7c2.6-1.4,1.4-6.7,5.7-4.5
			c4.3-6.7,12.2-5.3,15.5-12.7c1.2-0.5,1.7,0.5,2.4,1.2c0.5-2.9,3.1-2.9,5-4.1c1.4,1,3.1,0.2,4.1,1.7l2.4-3.3
			c3.1,4.3,3.6-4.1,6.9,0.5C55.5,27.3,53.8,33.3,57.8,31.6z"/>
		<path class="st0" d="M164,29.3c1.2,2.4-4.5,4.1,0.5,4.1c2.2-0.7,5-3.3,7.7-2.4c0.2,0.7,1.2,1,1,1.7l-1,1.2l-2.4-1.7
			c-1,0.7-0.5,1.9-0.5,2.9c1,2.4,3.1,1.4,3.8,0c1.2,5.5,13.9,4.3,6.9,12l0.7,6.9c1.7-0.5,1.7,0.7,2.2,1.7c-2.4,1.2-1,3.8-2.2,5.3
			c-2.2-3.6-4.8,0-6.9,0.5c-1.2,4.3,2.9,12-3.6,12.7c-0.7,0.7-1.2,1.7-2.2,1.2c0-0.7,0-1.4-0.7-1.7c-0.7-0.2-1,0.7-1.7,1.2
			c-1.9,3.8,5.7,3.1,0.7,6.2c-1,0-1.9-1.4-2.4,0c2.6,1.9-0.2,4.8,0.5,6.9c-3.6-1.2-1.7,4.1-5,3.3l-1.2,1.2c0.2,0.2,0.7,0.7,0.5,1.2
			c-5.7,1.4-8.4,5.7-14.8,5.7c-1.9-2.9-5.3-1.4-7.4-3.6c-1.7,1.2-1.7,3.1-4.1,2.4c-0.5-3.1-7.9,1.7-6.9-4.1l-2.2,1.2
			c-1.4-4.1-6.9-5.3-5.7-9.8c-3.8-1.7-2.4-6.2-2.4-9.8c1-2.6-0.2-4.3,2.9-6.2c-0.5-2.9,1.7-6.7,1.7-9.1c0-2.4,5-2.4,3.6-5.7
			c1.4,0.5,1.4,1.2,2.9,2.2l1-1.2c-0.5-1.2-4.1-2.4-2.9-5c1.9,0.5,3.6-0.7,4.1-2.4c-1.4-2.9,2.6-2.6,2.4-4.5
			c3.8,1.2,2.2-5.3,5.7-2.9c1.4-1.9,5.3-0.7,5-4.1c2.4,1.7,4.5,1.4,7.7,0.7c-0.5-1.7-2.2-1.7,0-2.9h2.2V35c1.7,2.2,3.3-1.4,4.5-0.5
			c0.2-1-0.5-2.4,0.7-2.9c0,0.5,3.1,1.7,1.2,2.9l1,1c1-1,2.4-1.7,1.9-3.3c0.2,0.2,0.5,0.7,1,0.5C163.1,31.9,161.2,28.5,164,29.3z"/>
		<path class="st0" d="M61.9,33.3v0.5h-1.7v-1.7C61,31.9,61.2,32.8,61.9,33.3z"/>
		<path class="st1" d="M53.3,32.6l1.2,1.2L53.3,32.6z"/>
		<path class="st1" d="M119.8,39.5h-1.2l1.9-1.7C120.3,38.6,120.5,39.3,119.8,39.5z"/>
		<rect x="117.6" y="40.5" class="st1" width="0.7" height="0.7"/>
		<rect x="61.2" y="48.1" class="st1" width="0.7" height="0.7"/>
		<polygon class="st1" points="160,57.5 161.2,56.3 161.2,57.5 		"/>
		<path class="st0" d="M177.9,64.2c-0.7-0.2-2.2-1.9-0.7-2.9h0.7V64.2z"/>
		<polygon class="st1" points="55,72.8 53.8,71.8 55,71.8 		"/>
		<rect x="57.4" y="75.7" class="st1" width="0.5" height="1.2"/>
		<polygon class="st1" points="91.8,77.6 91.1,76.4 91.8,76.4 		"/>
		<path class="st0" d="M98.5,82.6c-0.2,1,1,1.2,1.2,1.7c1.4-1.4,3.6,0,3.6,1.9c0.2-0.5,0.5-1,1-0.7l0.7,4.1c1.4-1.4,3.3,0,4.5,1.2
			c0.5-0.7,1.4-1,1.2-1.7c0.5,0,1.2-0.2,1.7,0.5c-1,1.2-1.2,2.9-1.2,4.5c0.5,0.5,0.7,0.7,1.2,0.7l1.2-3.6c1.9,1.7,3.3,4.3,5,6.5
			l-3.3,1c2.9,1.4,1.4,4.1,1.2,6.5v1.2c-3.1-1.2-1.4,1.9-2.4,2.9c2.9,1.9,1.4,4.3,1.2,6.7c-0.5,0-0.7,0.2-1.2,0.7l1.2,1.2
			c0.5-1.2,1.4-0.5,2.4-0.7v1.7c-1.4,0.5-2.6-1.4-3.6,0.7c1.4,1.2,3.6,3.3,3.6,5.7l-2.9,5c3.6-0.7,3.6,4.1,7.4,2.9
			c0.7,2.2-1.7,1.4-2.4,2.4c-0.7,1.9-0.2,5-2.9,5.7c0.5,3.3,6,2.9,5.7,6.2c0.5,2.2,1.2,4.5,4.1,3.6c-0.2,3.3-2.4,7.2,2.4,7.4
			c0.5,1.7-1,2.6-1.2,4.1c3.1,1.9-1.2,4.3,0.5,6.2l-1.7,1.7c1.7,1.7-1.4,2.6-1.2,4.1c-2.4,0.2-4.3,1.9-5,4.1
			c2.2,3.6-4.3,1.7-2.4,5.7l-3.3-1.2c-1.2,0.5-0.5,1.7-0.7,2.4c-3.1-1.9-5.7,3.3-9.1,1.2c-1.2,0.7,0,3.6-2.4,2.9l-1.7-1.9
			c-1,1-2.2,2.9-3.3,1.2c-0.5-0.2-1-0.5-0.7-1.2c2.9-1.2,0.7-2.9,1.2-4.5h-0.5c1.4-0.2,1.2-3.8,3.8-2.9c0.7,0.7,1,2.4,2.4,1.7
			c0-1.4,2.6-3.3,0-4.5l-1.2,1.2l0.7,0.5c-2.4-0.2-4.3-1.7-6.5,0c0.5,2.2-3.1,3.1-1.2,5.3c-3.1-1.2-1.7,2.6-2.2,3.3
			c-5.3,1.7-9.3-0.2-13.2-0.5c-1.7,4.8-5.5,0.2-8.6,1.7c-4.5-2.2-6.5-7.2-12.2-6.2v-0.7c-5.7,1.4-6-1.9-11.5-3.3
			c-1-3.8-2.9-4.8-6.2-5.7l-0.7,0.5c-3.8-2.4-3.8-4.3-7.9-5.7l-2.9,1.2c-0.5-2.4-1.2-4.5-3.6-6.2l-3.3,2.2c-0.7-1.2,1.2-2.6,2.4-3.8
			c-1.2-1.2-3.1-0.5-4.8-0.7l-0.5-3.3l-1.7,1.2l1.7-3.6c-2.6-1.2-3.6-6-7.4-6.9c0.2-3.1-1.9-6.2-1.2-9.1l-4.5-4.5
			c0.5,0.2,1.4-2.9,1.2-4.5c0.7-0.2,1.9,0.5,2.2-0.7c0.5-3.6-2.2,0.5-3.3-1.7c5.5-5.7-3.1-12,6.9-15.5c-1.2-0.5-0.5-1.9-0.7-2.9
			c2.2-1,3.6-3.6,6.5-3.3c1,1.7,3.8,0.2,5,0.5c-0.5-1.2,0.7-1.9,1.2-2.9h1.2c0,1,1.2,1.7,1.7,2.4c0.2-4.1,4.8-2.4,6.2-5.3
			c1.9,3.1,4.5-0.7,6.5-1.7v-1.7c2.4-1.4,6.5-0.2,9.1,1.2c1.7-1,4.1-0.7,4.5-2.9c1.2-0.2,1.7,1,2.4,1.7c0.5-0.7,1.4-1,1.2-1.7
			l-1.7-1.9c2.6-3.3,8.6,2.9,9.1-4.5c3.8-3.6,6.5,5.5,8.6-1.7c1.4,0.5,2.9,2.9,4.5,1.2c0.2-0.5-0.7-3.6,1.7-2.9v1.7
			c-0.5-0.2-0.7,0.2-1,0.5c-0.2,0.7,0.2,1,0.5,1.2c3.6,0,3.1-7.9,7.4-3.3c1.2-1.9,4.3-1.4,5.7-0.7c0.2,1-0.5,1.9,0.7,2.4
			C97.5,87.1,95.6,81.6,98.5,82.6z"/>
		<rect x="105" y="89.8" class="st1" width="0.7" height="1"/>
		<path class="st0" d="M181.7,93.6c0.5-0.7,1.4-1,1.2-1.7l1.2,2.2c1-1.2,2.6,0,2.9,1.2c-0.7,1-4.3,1.4-3.3,4.1
			c1.9,1.4,4.1-0.5,6.2-0.7v1.2c1.2,0.7,4.1-0.7,4.1-2.9c0.5,0.2,0.7-0.2,1.2-0.5c-0.7,2.6,3.8,4.5,0.5,6.9l1.2,1l-1.7,1.9
			c0.7,1.2,1.7,1,2.9,1.7c-1.2,3.6,0.5,6.5-4.8,8.6c0,2.2,4.5,4.1,1.2,5.7c-1.2,0-2.2-0.2-2.9-1.2c-1.9,1-0.2,1.7,0,2.9
			c1,0.5,0.5,1.4,0.7,2.4c-3.8,0.5-4.1,6-8.6,5.7l0.5,4.5c-6.2-1.9-4.8,5.7-8.6,7.4l1.2,1.7c-2.2-1.2-5,2.2-6.9,4.1
			c0.5,1.4-0.5,2.6-1.7,2.9c-5.3-1-4.1,6.7-9.3,5.7c-1,0.7-0.2,1.9-0.5,2.9h-2.9c1-2.4-1.7-2.4-2.4-3.3c-1.4,1,0.5,2.2,0.7,3.3
			c-2.4-0.2-4.1,2.6-5.7,1.7c-1.2-1.7,2.6-1.2,0.5-2.9c-2.9-1-2.9,3.1-5,2.9c-1.7-1,1.2-3.3-1.9-2.9l-0.5-3.3
			c-1.2,0.2-1.9,1.7-3.3,1.2l0.5-1.9c-2.6,0.2-5-2.9-5.7-5c-0.5-2.4-2.4-4.5-1.7-6.9c-4.3-3.1-0.7-9.6-6.5-13.2
			c0.7-1.2,1.2-2.6,2.4-3.6c-1-1-2.2-1.7-1.7-3.3c3.3,0.2,1.9-3.3,1.7-5.3c1.2-1.4,4.1,1,2.9-2.9c0.5,0.2,0.7-0.2,1.2-0.5
			c-0.2-1.7-2.2-1.4,0-2.9l0.5,0.5c0.2-2.9,3.8-2.9,4.5-5.7c2.6-0.2,3.1,2.9,5.3,1.9l-1.2-2.4c1,0.2,1.2-0.7,1.7-1.2v-2.2
			c3.8,1.2,6.7-3.1,11-2.4c-0.2,0.5,0.2,0.7,0.5,1.2c1-0.7,1.4-2.4,2.9-1.7l0.7,0.5c1.4-1.2,1.4-4.3,4.1-4.1
			c-0.5,1.4,1.2,2.6,2.2,2.9c2.4,0.7,1.2-1.9,2.4-2.9c3.3-2.9,11.7,3.8,12.7-3.3C178.1,92.4,181.5,90.5,181.7,93.6z"/>
		<rect x="123.4" y="92.2" class="st1" width="0.7" height="0.7"/>
		<polygon class="st0" points="189.9,97.7 188.7,95.7 189.9,95.7 		"/>
		<path class="st1" d="M112.4,99.3l0.5,0.5L112.4,99.3z"/>
		<path class="st1" d="M178.9,105.1c-0.7-0.2-1.9,0.5-2.2-0.7v-1c1,0.5,2.2-0.7,1.7-1.9C179.3,102.4,178.9,103.9,178.9,105.1z"/>
		<path class="st1" d="M106.6,106.3v1.7l-1.7-2.4C105.4,105.6,106.2,105.6,106.6,106.3z"/>
		<polygon class="st1" points="144.4,111.3 144.4,110.1 145.6,111.3 		"/>
		<rect x="113.6" y="112.5" class="st1" width="0.5" height="1.2"/>
		<polygon class="st1" points="148,113.7 147.3,112.5 148,112.5 		"/>
		<path class="st1" d="M111.9,122.8c-0.2,0.7,0,1.4-0.7,1.7l-0.5-1.7H111.9z"/>
		<path class="st1" d="M114.8,129.2h-0.7v-2.4C114.5,126.8,113.8,128.3,114.8,129.2z"/>
		<rect x="114.8" y="132.1" class="st1" width="0.5" height="1"/>
		<path class="st1" d="M115.7,146.4h-0.5l1.2-2.4C116.2,144.8,116.9,146,115.7,146.4z"/>
		<path class="st1" d="M69.8,144.5h2.4H69.8z"/>
		<path class="st1" d="M120.5,148.6c-0.2,0.7,0,1.4-0.7,1.7l-1.7-3.3C119.1,146.9,119.6,148.1,120.5,148.6z"/>
		<path class="st1" d="M165.7,149.3h1.2H165.7z"/>
		<rect x="117.6" y="149.6" class="st1" width="0.7" height="0.7"/>
		<path class="st1" d="M118.1,156v0.7l-1.2-1.2C117.4,155.3,117.9,155.8,118.1,156z"/>
		<rect x="126.2" y="157.5" class="st1" width="0.7" height="1"/>
	</g>
	<path class="st0" d="M157.4,175c1.8,0,3.1,1.5,3.1,3.3c0,1.9-1.4,3.4-3.1,3.3c-1.8,0-3.2-1.5-3.2-3.3
		C154.3,176.5,155.7,175,157.4,175L157.4,175z M157.4,174.4c-2.2,0-3.9,1.7-3.9,3.9c0,2.2,1.7,3.9,3.9,3.9c2.2,0,3.9-1.7,3.9-3.9
		C161.3,176.2,159.6,174.4,157.4,174.4L157.4,174.4z M156.7,178.8h0.5c0.6,0,0.9,0.2,1,0.8c0.1,0.6,0.2,1,0.3,1.1h0.7
		c-0.1-0.1-0.2-0.4-0.3-1.1c-0.1-0.6-0.4-1-0.7-1.1v0c0.5-0.1,0.9-0.5,0.9-1.1c0-0.4-0.1-0.7-0.4-0.9c-0.3-0.2-0.7-0.3-1.4-0.3
		c-0.5,0-0.9,0.1-1.2,0.1v4.4h0.7V178.8z M156.7,176.7c0.1,0,0.3,0,0.5,0c0.8,0,1.1,0.4,1.1,0.8c0,0.6-0.5,0.8-1.1,0.8h-0.5V176.7z"
		/>
</g>
</svg>
